<svg width="29" height="29" viewBox="0 0 29 29" fill="none" xmlns="http://www.w3.org/2000/svg">
<g id="icone">
<circle id="Ellipse 3" cx="14.5" cy="14.7083" r="14" fill="#1E1F28"/>
<path id="Vector" d="M13.4055 10.4804L19.311 13.9799C19.4461 14.0598 19.5568 14.1681 19.6333 14.2951C19.7099 14.4222 19.75 14.5641 19.75 14.7083C19.75 14.8524 19.7099 14.9943 19.6333 15.1214C19.5568 15.2485 19.4461 15.3567 19.311 15.4366L13.4055 18.9361C13.2573 19.0241 13.0849 19.0746 12.9069 19.0822C12.7289 19.0899 12.5518 19.0544 12.3947 18.9797C12.2376 18.9049 12.1062 18.7936 12.0147 18.6577C11.9232 18.5217 11.8749 18.3662 11.875 18.2078V11.2087C11.8749 11.0503 11.9232 10.8948 12.0147 10.7589C12.1062 10.6229 12.2376 10.5116 12.3947 10.4368C12.5518 10.3621 12.7289 10.3266 12.9069 10.3343C13.0849 10.3419 13.2573 10.3924 13.4055 10.4804Z" fill="url(#paint0_linear_803_71)"/>
</g>
<defs>
<linearGradient id="paint0_linear_803_71" x1="11.875" y1="14.7929" x2="19.9925" y2="14.9382" gradientUnits="userSpaceOnUse">
<stop stop-color="#9F55FF"/>
<stop offset="1" stop-color="#FF46B9"/>
</linearGradient>
</defs>
</svg>
