<svg width="1440" height="820" viewBox="0 0 1440 820" fill="none" xmlns="http://www.w3.org/2000/svg">
<g clip-path="url(#clip0_501_2454)">
<rect width="1440" height="820" fill="#000013"/>
<g filter="url(#filter0_f_501_2454)">
<path d="M1414.13 627.547L1394.34 726.899L1301.28 766.915L1389.65 816.439L1398.96 917.329L1473.36 848.586L1572.18 870.915L1529.78 778.892L1581.54 691.82L1480.94 703.695L1414.13 627.547Z" fill="#000062"/>
</g>
<g filter="url(#filter1_f_501_2454)">
<path d="M-36.9241 282.981L-53.2511 364.959L-130.036 397.977L-57.1242 438.84L-49.4416 522.086L11.9455 465.365L93.4859 483.789L58.4991 407.859L101.211 336.014L18.2042 345.812L-36.9241 282.981Z" fill="#000062"/>
</g>
<path d="M158.903 778.213L160.137 779.507L161.903 779.224L161.053 780.798L161.868 782.391L160.109 782.069L158.846 783.336L158.609 781.563L157.014 780.753L158.626 779.98L158.903 778.213Z" fill="#00001E"/>
<path d="M996.212 730.441L997.507 729.207L997.224 727.441L998.798 728.29L1000.39 727.476L1000.07 729.235L1001.34 730.497L999.562 730.735L998.753 732.33L997.979 730.717L996.212 730.441Z" fill="#00002D"/>
<path d="M1242.28 498.185L1241.05 499.479L1239.28 499.197L1240.13 500.77L1239.32 502.363L1241.08 502.041L1242.34 503.308L1242.58 501.535L1244.17 500.726L1242.56 499.952L1242.28 498.185Z" fill="#00002D"/>
<path d="M973.212 115.24L974.507 116.474L974.224 118.24L975.798 117.39L977.39 118.205L977.068 116.446L978.335 115.183L976.562 114.946L975.753 113.351L974.979 114.963L973.212 115.24Z" fill="#00002D"/>
<path d="M1065.69 290.622L1064.95 292.249L1063.18 292.558L1064.5 293.768L1064.25 295.539L1065.81 294.661L1067.42 295.446L1067.06 293.693L1068.3 292.407L1066.53 292.202L1065.69 290.622Z" fill="#00002D"/>
<path d="M678.88 297.021L680.174 298.255L679.891 300.021L681.465 299.171L683.058 299.986L682.736 298.227L684.003 296.964L682.23 296.727L681.42 295.132L680.647 296.744L678.88 297.021Z" fill="#00002D"/>
<path d="M179.888 72.4024L180.563 74.0587L179.581 75.5535L181.365 75.4236L182.483 76.8194L182.911 75.0829L184.584 74.4505L183.064 73.5071L182.98 71.7207L181.613 72.8743L179.888 72.4024Z" fill="#00001E"/>
<path d="M290.402 709.456L292.058 708.781L293.553 709.762L293.423 707.979L294.819 706.86L293.083 706.433L292.45 704.76L291.507 706.279L289.72 706.364L290.874 707.73L290.402 709.456Z" fill="#00001E"/>
<path d="M267.402 136.225L269.058 136.9L270.553 135.918L270.423 137.702L271.819 138.821L270.083 139.248L269.45 140.921L268.507 139.401L266.72 139.317L267.874 137.95L267.402 136.225Z" fill="#00001E"/>
<path d="M97.9981 675.063L97.5545 676.796L98.7303 678.143L96.9454 678.257L96.0268 679.792L95.3674 678.129L93.6238 677.73L95.0015 676.589L94.8424 674.808L96.3531 675.765L97.9981 675.063Z" fill="#00001E"/>
<path d="M893.063 791.345L894.795 791.789L896.143 790.613L896.257 792.398L897.792 793.316L896.129 793.976L895.73 795.719L894.589 794.342L892.808 794.501L893.765 792.99L893.063 791.345Z" fill="#00002D"/>
<path d="M1303.19 395.035L1303.63 396.768L1302.45 398.115L1304.24 398.229L1305.16 399.764L1305.82 398.101L1307.56 397.702L1306.18 396.561L1306.34 394.78L1304.83 395.737L1303.19 395.035Z" fill="#00002D"/>
<path d="M1305.42 719.366L1305.86 717.633L1304.69 716.286L1306.47 716.172L1307.39 714.637L1308.05 716.299L1309.79 716.699L1308.41 717.84L1308.57 719.621L1307.06 718.664L1305.42 719.366Z" fill="#00002D"/>
<path d="M870.063 54.3356L871.795 53.8919L873.143 55.0677L873.256 53.2829L874.791 52.3643L873.129 51.7049L872.73 49.9613L871.589 51.339L869.807 51.1798L870.765 52.6906L870.063 54.3356Z" fill="#00002D"/>
<path d="M575.73 236.117L577.462 235.673L578.81 236.849L578.924 235.064L580.459 234.145L578.796 233.486L578.397 231.742L577.256 233.12L575.475 232.961L576.432 234.472L575.73 236.117Z" fill="#00001E"/>
<path d="M291.987 562.537L292.268 560.771L290.972 559.538L292.739 559.259L293.511 557.646L294.322 559.24L296.095 559.475L294.829 560.739L295.153 562.498L293.56 561.685L291.987 562.537Z" fill="#00001E"/>
<path d="M583.8 550.457L584.08 548.69L582.785 547.458L584.551 547.179L585.323 545.565L586.134 547.159L587.907 547.395L586.642 548.659L586.965 550.418L585.372 549.605L583.8 550.457Z" fill="#00001E"/>
<path d="M780.537 597.356L778.771 597.075L777.538 598.371L777.259 596.604L775.646 595.832L777.24 595.021L777.475 593.248L778.739 594.514L780.498 594.19L779.685 595.783L780.537 597.356Z" fill="#00002D"/>
<path d="M757.537 248.325L755.771 248.606L754.538 247.31L754.259 249.076L752.646 249.849L754.24 250.659L754.475 252.433L755.739 251.167L757.498 251.491L756.685 249.898L757.537 248.325Z" fill="#00002D"/>
<path d="M463.204 430.106L461.438 430.387L460.205 429.091L459.926 430.857L458.313 431.63L459.907 432.441L460.142 434.214L461.406 432.948L463.165 433.272L462.352 431.679L463.204 430.106Z" fill="#00001E"/>
<path d="M1347.23 594.647L1347.64 589.107L1352.44 586.305L1347.3 584.202L1346.12 578.774L1342.53 583.014L1337 582.461L1339.93 587.185L1337.69 592.271L1343.09 590.95L1347.23 594.647Z" fill="#00002D"/>
<path d="M1069.67 10.2877L1064.13 9.877L1061.33 5.0806L1059.23 10.222L1053.8 11.4053L1058.04 14.9934L1057.49 20.5215L1062.21 17.5967L1067.3 19.8301L1065.98 14.4346L1069.67 10.2877Z" fill="#00001F"/>
<path d="M71.7839 476.435L72.7071 481.913L77.7428 484.257L72.8189 486.828L72.1446 492.343L68.1784 488.454L62.7254 489.518L65.1991 484.543L62.5032 479.686L67.998 480.5L71.7839 476.435Z" fill="#00001E"/>
<path d="M694.435 817.559L699.913 816.636L702.257 811.6L704.828 816.524L710.343 817.199L706.454 821.165L707.518 826.618L702.543 824.144L697.686 826.84L698.5 821.345L694.435 817.559Z" fill="#00001F"/>
<path d="M1315.91 148.345L1314.96 153.127L1310.48 155.052L1314.73 157.436L1315.18 162.291L1318.76 158.983L1323.51 160.057L1321.47 155.629L1323.96 151.438L1319.12 152.01L1315.91 148.345Z" fill="#00002D"/>
<path d="M145.634 761.969L144.91 765.601L141.508 767.064L144.739 768.874L145.079 772.563L147.799 770.05L151.412 770.866L149.862 767.502L151.754 764.318L148.076 764.753L145.634 761.969Z" fill="#00001E"/>
<path d="M671.435 28.1213L676.913 29.0445L679.257 34.0803L681.828 29.1563L687.343 28.4821L683.454 24.5158L684.518 19.0629L679.543 21.5365L674.686 18.8407L675.5 24.3355L671.435 28.1213Z" fill="#00001F"/>
<path d="M189.216 729.987L188.293 724.509L183.257 722.165L188.181 719.594L188.855 714.079L192.822 717.968L198.275 716.904L195.801 721.879L198.497 726.736L193.002 725.922L189.216 729.987Z" fill="#00001E"/>
<path d="M947.987 700.127L942.509 701.05L940.164 706.086L937.593 701.162L932.079 700.488L935.967 696.522L934.904 691.069L939.879 693.542L944.736 690.846L943.922 696.341L947.987 700.127Z" fill="#00002D"/>
<path d="M924.987 145.554L919.509 144.63L917.164 139.595L914.593 144.519L909.079 145.193L912.967 149.159L911.904 154.612L916.879 152.138L921.736 154.834L920.922 149.339L924.987 145.554Z" fill="#00002D"/>
<path d="M1211.97 449.959L1212.89 444.481L1217.93 442.137L1213 439.566L1212.33 434.051L1208.36 437.94L1202.91 436.876L1205.38 441.852L1202.69 446.708L1208.18 445.894L1211.97 449.959Z" fill="#00002D"/>
<path d="M1021.3 254.93L1020.38 249.451L1024.38 245.591L1018.88 244.768L1016.45 239.775L1013.97 244.746L1008.47 245.52L1012.43 249.416L1011.46 254.886L1016.39 252.323L1021.3 254.93Z" fill="#00002D"/>
<path d="M630.654 327.335L625.176 326.411L622.832 321.376L620.261 326.3L614.746 326.974L618.635 330.94L617.571 336.393L622.546 333.919L627.403 336.615L626.589 331.12L630.654 327.335Z" fill="#00001E"/>
<path d="M28.7109 135.488L33.7058 133.057L34.5342 127.564L38.39 131.562L43.8711 130.653L41.2594 135.556L43.8181 140.487L38.3471 139.518L34.4484 143.474L33.6793 137.973L28.7109 135.488Z" fill="#00001E"/>
<path d="M330.488 -14.9517L328.057 -9.95681L322.564 -9.12839L326.562 -5.27255L325.653 0.208519L330.556 -2.40324L335.487 0.155476L334.518 -5.31546L338.474 -9.2142L332.973 -9.98333L330.488 -14.9517Z" fill="#00001E"/>
<path d="M172.567 142.657L177.562 145.088L178.39 150.581L182.246 146.583L187.727 147.492L185.115 142.59L187.674 137.658L182.203 138.628L178.304 134.671L177.535 140.172L172.567 142.657Z" fill="#00001E"/>
<path d="M360.657 716.776L363.088 711.782L368.581 710.953L364.583 707.097L365.492 701.616L360.589 704.228L355.658 701.669L356.627 707.14L352.671 711.039L358.172 711.808L360.657 716.776Z" fill="#00001E"/>
<path d="M337.657 128.904L340.088 133.899L345.581 134.728L341.583 138.583L342.492 144.064L337.589 141.453L332.658 144.011L333.627 138.54L329.671 134.642L335.172 133.873L337.657 128.904Z" fill="#00001E"/>
<path d="M146.203 462.751L150.822 459.663L150.896 454.109L155.259 457.546L160.566 455.901L158.645 461.113L161.85 465.651L156.298 465.434L152.973 469.883L151.463 464.538L146.203 462.751Z" fill="#00001E"/>
<path d="M680.751 743.14L677.663 738.522L672.109 738.447L675.546 734.084L673.901 728.777L679.113 730.698L683.651 727.493L683.434 733.045L687.883 736.37L682.537 737.88L680.751 743.14Z" fill="#00002D"/>
<path d="M1254.98 182.723L1250.36 179.635L1250.29 174.081L1245.92 177.519L1240.62 175.873L1242.54 181.085L1239.33 185.623L1244.89 185.406L1248.21 189.856L1249.72 184.51L1254.98 182.723Z" fill="#00002D"/>
<path d="M1093.86 578.986L1095.27 573.613L1100.5 571.73L1095.82 568.728L1095.65 563.175L1091.35 566.692L1086.01 565.143L1088.03 570.32L1084.91 574.915L1090.45 574.598L1093.86 578.986Z" fill="#00002D"/>
<path d="M657.75 102.541L654.663 107.159L649.109 107.234L652.546 111.597L650.901 116.904L656.112 114.982L660.65 118.187L660.433 112.635L664.883 109.31L659.537 107.801L657.75 102.541Z" fill="#00002D"/>
<path d="M363.417 284.322L360.33 288.94L354.776 289.015L358.213 293.378L356.568 298.685L361.78 296.763L366.318 299.968L366.1 294.416L370.55 291.091L365.204 289.582L363.417 284.322Z" fill="#00001E"/>
<path d="M23.3612 612.521L27.6728 609.018L27.2314 603.481L31.895 606.498L37.026 604.367L35.5967 609.735L39.2091 613.956L33.661 614.255L30.7635 618.994L28.7643 613.812L23.3612 612.521Z" fill="#00001E"/>
<path d="M1377.82 332.493L1373.51 328.99L1373.95 323.453L1369.29 326.471L1364.16 324.34L1365.59 329.707L1361.98 333.928L1367.52 334.227L1370.42 338.967L1372.42 333.784L1377.82 332.493Z" fill="#00002D"/>
<path d="M1380.06 781.908L1375.74 785.411L1376.18 790.948L1371.52 787.93L1366.39 790.061L1367.82 784.694L1364.21 780.473L1369.76 780.174L1372.65 775.434L1374.65 780.617L1380.06 781.908Z" fill="#00002D"/>
<path d="M268.892 495.784L273.204 492.281L272.762 486.744L277.426 489.762L282.557 487.631L281.128 492.998L284.74 497.219L279.192 497.518L276.294 502.258L274.295 497.075L268.892 495.784Z" fill="#00001E"/>
<path d="M713.784 620.451L710.281 616.139L704.744 616.581L707.762 611.917L705.631 606.786L710.998 608.216L715.219 604.603L715.518 610.151L720.257 613.049L715.075 615.048L713.784 620.451Z" fill="#00002D"/>
<path d="M690.784 225.23L687.281 229.541L681.744 229.1L684.762 233.763L682.631 238.894L687.998 237.465L692.219 241.078L692.518 235.529L697.257 232.632L692.075 230.633L690.784 225.23Z" fill="#00002D"/>
<path d="M396.451 407.011L392.948 411.322L387.411 410.881L390.429 415.544L388.298 420.675L393.665 419.246L397.886 422.859L398.185 417.31L402.925 414.413L397.742 412.414L396.451 407.011Z" fill="#00001E"/>
<path d="M167.555 301.59L169.468 304.579L173.014 304.697L170.763 307.44L171.746 310.85L168.442 309.556L165.503 311.545L165.713 308.002L162.914 305.822L166.347 304.926L167.555 301.59Z" fill="#00001E"/>
<path d="M519.59 721.788L522.579 719.875L522.697 716.329L525.44 718.58L528.85 717.597L527.556 720.901L529.545 723.84L526.002 723.63L523.821 726.429L522.926 722.996L519.59 721.788Z" fill="#00001E"/>
<path d="M1233.63 21.5622L1231.72 24.5509L1228.17 24.6695L1230.42 27.412L1229.44 30.822L1232.74 29.5282L1235.68 31.5169L1235.47 27.9742L1238.27 25.7938L1234.84 24.8983L1233.63 21.5622Z" fill="#00001F"/>
<path d="M496.59 123.893L499.579 125.805L499.697 129.352L502.44 127.1L505.85 128.083L504.556 124.78L506.545 121.841L503.002 122.05L500.821 119.251L499.926 122.684L496.59 123.893Z" fill="#00001E"/>
<path d="M139.424 511.978L141.082 508.841L139.438 505.697L142.934 506.304L145.416 503.769L145.919 507.281L149.097 508.858L145.911 510.422L145.394 513.932L142.922 511.386L139.424 511.978Z" fill="#00001E"/>
<path d="M729.978 749.919L726.841 748.261L723.697 749.906L724.304 746.41L721.768 743.927L725.281 743.425L726.858 740.246L728.421 743.432L731.931 743.95L729.385 746.421L729.978 749.919Z" fill="#00002D"/>
<path d="M1261.76 231.95L1260.1 228.813L1261.75 225.669L1258.25 226.276L1255.77 223.741L1255.27 227.253L1252.09 228.83L1255.27 230.394L1255.79 233.904L1258.26 231.358L1261.76 231.95Z" fill="#00002D"/>
<path d="M1049.54 601.46L1051.96 598.869L1055.47 599.397L1053.76 596.291L1055.34 593.117L1051.86 593.788L1049.33 591.299L1048.89 594.82L1045.74 596.455L1048.96 597.96L1049.54 601.46Z" fill="#00002D"/>
<path d="M706.978 95.7613L703.841 97.4194L700.697 95.7752L701.304 99.2709L698.768 101.754L702.281 102.256L703.858 105.435L705.421 102.249L708.931 101.731L706.385 99.2597L706.978 95.7613Z" fill="#00002D"/>
<path d="M412.645 277.542L409.508 279.2L406.364 277.556L406.971 281.052L404.435 283.535L407.948 284.037L409.525 287.216L411.088 284.03L414.598 283.512L412.052 281.041L412.645 277.542Z" fill="#00001E"/>
<path d="M142.788 389.484L144.511 391.952L147.521 391.932L145.707 394.334L146.656 397.191L143.812 396.207L141.388 397.993L141.445 394.983L138.998 393.23L141.877 392.354L142.788 389.484Z" fill="#00001E"/>
<path d="M607.484 746.555L609.952 744.832L609.932 741.822L612.334 743.637L615.191 742.687L614.207 745.532L615.993 747.955L612.983 747.898L611.23 750.346L610.354 747.466L607.484 746.555Z" fill="#00001E"/>
<path d="M1258.4 109.457L1256.67 111.925L1253.66 111.904L1255.48 114.306L1254.53 117.163L1257.37 116.179L1259.8 117.965L1259.74 114.955L1262.19 113.202L1259.31 112.326L1258.4 109.457Z" fill="#00002D"/>
<path d="M1164.23 558.304L1161.33 557.481L1160.37 554.629L1158.69 557.128L1155.68 557.162L1157.54 559.53L1156.64 562.404L1159.47 561.368L1161.92 563.109L1161.81 560.101L1164.23 558.304Z" fill="#00002D"/>
<path d="M584.484 99.1253L586.952 100.849L586.932 103.859L589.334 102.044L592.191 102.994L591.207 100.149L592.993 97.7256L589.983 97.7823L588.23 95.3351L587.354 98.2148L584.484 99.1253Z" fill="#00001E"/>
<path d="M290.151 280.906L292.62 282.63L292.599 285.64L295.001 283.825L297.858 284.775L296.874 281.93L298.66 279.507L295.65 279.563L293.897 277.116L293.021 279.996L290.151 280.906Z" fill="#00001E"/>
<path d="M1073.23 730.061L1075.77 728.446L1075.88 725.438L1078.2 727.355L1081.1 726.53L1079.99 729.329L1081.67 731.828L1078.67 731.641L1076.81 734.01L1076.06 731.095L1073.23 730.061Z" fill="#00002D"/>
<path d="M1241.9 575.203L1240.29 577.743L1237.28 577.853L1239.2 580.174L1238.37 583.07L1241.17 581.963L1243.67 583.643L1243.48 580.638L1245.85 578.781L1242.94 578.03L1241.9 575.203Z" fill="#00002D"/>
<path d="M1050.23 115.62L1052.77 117.235L1052.88 120.243L1055.2 118.326L1058.1 119.151L1056.99 116.352L1058.67 113.853L1055.67 114.04L1053.81 111.671L1053.06 114.586L1050.23 115.62Z" fill="#00002D"/>
<path d="M755.898 297.401L758.438 299.016L758.548 302.024L760.869 300.107L763.764 300.932L762.658 298.133L764.338 295.634L761.333 295.821L759.476 293.452L758.725 296.367L755.898 297.401Z" fill="#00002D"/>
<path d="M1090.47 363.547L1089.77 366.476L1086.96 367.561L1089.53 369.13L1089.7 372.136L1091.98 370.177L1094.89 370.949L1093.73 368.169L1095.37 365.641L1092.37 365.882L1090.47 363.547Z" fill="#00002D"/>
<path d="M32.8895 716.206L31.591 718.922L33.0922 721.531L30.1082 721.136L28.09 723.37L27.5443 720.41L24.7958 719.181L27.4432 717.747L27.7623 714.754L29.944 716.828L32.8895 716.206Z" fill="#00001E"/>
<path d="M1368.29 436.178L1369.59 438.894L1368.09 441.503L1371.08 441.108L1373.09 443.342L1373.64 440.382L1376.39 439.153L1373.74 437.719L1373.42 434.726L1371.24 436.8L1368.29 436.178Z" fill="#00002D"/>
<path d="M20.8381 246.859L19.4232 249.516L20.81 252.187L17.8458 251.663L15.7328 253.808L15.3159 250.827L12.6231 249.48L15.3302 248.162L15.7786 245.186L17.8685 247.352L20.8381 246.859Z" fill="#00001E"/>
<path d="M164.694 31.2866L163.279 28.6295L164.666 25.9578L161.702 26.4821L159.589 24.3373L159.172 27.3184L156.479 28.6649L159.186 29.983L159.635 32.9595L161.725 30.793L164.694 31.2866Z" fill="#00001E"/>
<path d="M249.287 724.649L246.63 726.064L243.958 724.677L244.482 727.641L242.337 729.754L245.318 730.171L246.665 732.864L247.983 730.157L250.96 729.708L248.793 727.619L249.287 724.649Z" fill="#00001E"/>
<path d="M226.287 121.032L223.63 119.617L220.958 121.004L221.482 118.04L219.337 115.927L222.318 115.51L223.665 112.817L224.983 115.524L227.96 115.972L225.793 118.062L226.287 121.032Z" fill="#00001E"/>
<path d="M1080.22 679.521L1079.5 679.255L1079.3 678.505L1078.83 679.115L1078.05 679.067L1078.48 679.71L1078.2 680.43L1078.95 680.218L1079.54 680.711L1079.57 679.937L1080.22 679.521Z" fill="#00002D"/>
<path d="M1057.22 166.159L1056.5 166.425L1056.3 167.176L1055.83 166.566L1055.05 166.614L1055.48 165.971L1055.2 165.251L1055.95 165.463L1056.54 164.97L1056.57 165.744L1057.22 166.159Z" fill="#00002D"/>
<path d="M1044.98 386.652L1044.49 386.051L1043.72 386.113L1044.14 385.463L1043.84 384.748L1044.59 384.946L1045.17 384.442L1045.22 385.216L1045.88 385.619L1045.16 385.899L1044.98 386.652Z" fill="#00002D"/>
<path d="M762.891 347.94L762.164 348.206L761.971 348.957L761.493 348.347L760.72 348.395L761.152 347.752L760.867 347.032L761.612 347.244L762.209 346.751L762.238 347.525L762.891 347.94Z" fill="#00002D"/>
<path d="M53.7455 762.77L54.5034 762.61L55.0647 763.143L55.1469 762.373L55.828 762.004L55.1208 761.688L54.9803 760.926L54.4611 761.501L53.6933 761.399L54.0796 762.071L53.7455 762.77Z" fill="#00001E"/>
<path d="M1347.44 482.742L1346.68 482.582L1346.12 483.116L1346.04 482.345L1345.36 481.976L1346.06 481.66L1346.2 480.898L1346.72 481.473L1347.49 481.372L1347.1 482.043L1347.44 482.742Z" fill="#00002D"/>
<path d="M957.77 10.0828L957.61 10.8406L958.143 11.402L957.373 11.4841L957.004 12.1652L956.688 11.4581L955.926 11.3176L956.501 10.7984L956.399 10.0306L957.071 10.4169L957.77 10.0828Z" fill="#00001F"/>
<path d="M68.831 100.612L70.203 97.8321L73.2709 97.3862L71.051 95.2223L71.5749 92.1661L68.831 93.6089L66.0865 92.1661L66.6111 95.2223L64.3912 97.3862L67.4591 97.8321L68.831 100.612Z" fill="#00001E"/>
<path d="M318.612 820.512L315.832 819.14L315.386 816.072L313.222 818.292L310.166 817.768L311.609 820.512L310.166 823.257L313.222 822.732L315.386 824.952L315.832 821.884L318.612 820.512Z" fill="#00001E"/>
<path d="M295.612 25.1687L292.832 26.5406L292.386 29.6085L290.222 27.3886L287.166 27.9125L288.609 25.1687L287.166 22.4242L290.222 22.9487L292.386 20.7288L292.832 23.7968L295.612 25.1687Z" fill="#00001E"/>
<path d="M64.7692 316.295L63.6613 319.191L60.648 319.92L63.0592 321.868L62.8213 324.96L65.4193 323.269L68.2859 324.45L67.4799 321.456L69.4894 319.095L66.3933 318.936L64.7692 316.295Z" fill="#00001E"/>
<path d="M534.295 824.574L537.191 825.682L537.92 828.695L539.868 826.284L542.96 826.522L541.269 823.924L542.45 821.058L539.456 821.864L537.095 819.854L536.936 822.95L534.295 824.574Z" fill="#00001E"/>
<path d="M1336.42 36.2677L1337.52 39.1633L1340.54 39.892L1338.13 41.8405L1338.36 44.9322L1335.77 43.2409L1332.9 44.4227L1333.7 41.4284L1331.7 39.0677L1334.79 38.9086L1336.42 36.2677Z" fill="#00002D"/>
<path d="M511.295 21.1065L514.191 19.9986L514.92 16.9853L516.868 19.3965L519.96 19.1585L518.269 21.7566L519.45 24.6232L516.456 23.8172L514.095 25.8266L513.936 22.7306L511.295 21.1065Z" fill="#00001E"/>
<path d="M54.5059 569.44L55.2101 566.421L58.0964 565.289L55.4428 563.686L55.2585 560.591L52.9143 562.62L49.9137 561.838L51.1191 564.695L49.449 567.307L52.538 567.044L54.5059 569.44Z" fill="#00001E"/>
<path d="M1346.68 289.412L1345.97 286.393L1343.09 285.262L1345.74 283.659L1345.93 280.563L1348.27 282.592L1351.27 281.811L1350.07 284.668L1351.74 287.28L1348.65 287.016L1346.68 289.412Z" fill="#00002D"/>
<path d="M764.44 10.8433L761.421 11.5475L760.289 14.4338L758.686 11.7802L755.591 11.5959L757.62 9.25172L756.838 6.25115L759.695 7.45652L762.307 5.78645L762.044 8.87543L764.44 10.8433Z" fill="#00001F"/>
<path d="M206.494 636.982L205.79 640.001L202.904 641.133L205.557 642.736L205.742 645.831L208.086 643.802L211.086 644.584L209.881 641.727L211.551 639.115L208.462 639.378L206.494 636.982Z" fill="#00001E"/>
<path d="M498.306 624.902L497.602 627.921L494.716 629.053L497.37 630.655L497.554 633.751L499.898 631.722L502.899 632.503L501.693 629.646L503.363 627.035L500.274 627.298L498.306 624.902Z" fill="#00001E"/>
<path d="M854.982 682.849L858.001 683.554L859.133 686.44L860.736 683.786L863.831 683.602L861.802 681.258L862.584 678.257L859.727 679.463L857.115 677.792L857.378 680.881L854.982 682.849Z" fill="#00002D"/>
<path d="M831.982 162.831L835.001 162.127L836.133 159.241L837.736 161.894L840.831 162.079L838.802 164.423L839.584 167.424L836.727 166.218L834.115 167.888L834.378 164.799L831.982 162.831Z" fill="#00002D"/>
<path d="M537.649 344.612L540.668 343.908L541.8 341.022L543.403 343.675L546.498 343.86L544.469 346.204L545.251 349.205L542.394 347.999L539.782 349.669L540.045 346.58L537.649 344.612Z" fill="#00001E"/>
<path d="M238.119 440.389L235.076 440.984L232.861 438.815L232.487 441.893L229.739 443.329L232.55 444.636L233.067 447.693L235.179 445.423L238.246 445.876L236.74 443.166L238.119 440.389Z" fill="#00001E"/>
<path d="M658.389 651.225L658.984 654.267L656.815 656.482L659.892 656.857L661.329 659.605L662.636 656.793L665.693 656.276L663.423 654.164L663.875 651.097L661.166 652.603L658.389 651.225Z" fill="#00002D"/>
<path d="M635.389 194.456L635.984 191.413L633.815 189.198L636.892 188.824L638.329 186.076L639.636 188.887L642.693 189.405L640.423 191.517L640.875 194.583L638.166 193.077L635.389 194.456Z" fill="#00002D"/>
<path d="M341.056 376.237L341.651 373.194L339.482 370.979L342.559 370.605L343.996 367.857L345.303 370.668L348.36 371.186L346.09 373.298L346.542 376.364L343.833 374.858L341.056 376.237Z" fill="#00001E"/>
<path d="M268.412 649.296L271.455 648.701L273.67 650.87L274.044 647.793L276.792 646.356L273.981 645.049L273.464 641.992L271.352 644.263L268.285 643.81L269.791 646.52L268.412 649.296Z" fill="#00001E"/>
<path d="M560.225 637.216L563.267 636.621L565.482 638.79L565.857 635.713L568.604 634.276L565.793 632.969L565.276 629.912L563.164 632.182L560.097 631.73L561.603 634.439L560.225 637.216Z" fill="#00001E"/>
<path d="M867.296 620.931L866.701 617.888L868.87 615.673L865.793 615.299L864.356 612.551L863.049 615.362L859.992 615.88L862.263 617.992L861.81 621.058L864.52 619.552L867.296 620.931Z" fill="#00002D"/>
<path d="M844.296 224.75L843.701 227.792L845.87 230.007L842.793 230.382L841.356 233.13L840.049 230.318L836.992 229.801L839.263 227.689L838.81 224.622L841.52 226.128L844.296 224.75Z" fill="#00002D"/>
<path d="M549.964 406.531L549.368 409.573L551.537 411.788L548.46 412.163L547.023 414.911L545.716 412.099L542.659 411.582L544.93 409.47L544.477 406.403L547.187 407.909L549.964 406.531Z" fill="#00001E"/>
<path d="M148.196 624.699L151.171 623.824L153.577 625.778L153.664 622.679L156.267 620.993L153.347 619.953L152.548 616.957L150.656 619.414L147.56 619.248L149.311 621.806L148.196 624.699Z" fill="#00001E"/>
<path d="M440.009 612.619L442.983 611.744L445.39 613.698L445.477 610.599L448.079 608.913L445.159 607.873L444.36 604.877L442.468 607.334L439.372 607.168L441.124 609.726L440.009 612.619Z" fill="#00001E"/>
<path d="M842.699 741.147L841.824 738.173L843.778 735.766L840.679 735.679L838.993 733.076L837.953 735.997L834.957 736.796L837.414 738.688L837.248 741.783L839.806 740.032L842.699 741.147Z" fill="#00002D"/>
<path d="M1252.99 344.671L1250.01 343.796L1247.61 345.75L1247.52 342.651L1244.92 340.966L1247.84 339.926L1248.64 336.93L1250.53 339.386L1253.62 339.22L1251.87 341.778L1252.99 344.671Z" fill="#00002D"/>
<path d="M1255.22 769.73L1252.25 770.605L1249.84 768.651L1249.75 771.75L1247.15 773.435L1250.07 774.475L1250.87 777.471L1252.76 775.015L1255.86 775.181L1254.11 772.623L1255.22 769.73Z" fill="#00002D"/>
<path d="M819.699 104.534L818.824 107.508L820.778 109.915L817.679 110.002L815.993 112.604L814.953 109.684L811.957 108.885L814.414 106.993L814.248 103.897L816.806 105.649L819.699 104.534Z" fill="#00002D"/>
<path d="M525.366 286.315L524.491 289.289L526.445 291.696L523.346 291.783L521.66 294.385L520.62 291.465L517.624 290.666L520.081 288.774L519.915 285.678L522.473 287.43L525.366 286.315Z" fill="#00001E"/>
<path d="M358.335 464.986L355.36 465.862L352.954 463.908L352.867 467.006L350.264 468.692L353.184 469.732L353.983 472.728L355.875 470.271L358.971 470.438L357.22 467.879L358.335 464.986Z" fill="#00001E"/>
<path d="M682.986 531.009L683.861 533.983L681.907 536.39L685.006 536.477L686.692 539.079L687.732 536.159L690.728 535.36L688.271 533.468L688.437 530.372L685.879 532.124L682.986 531.009Z" fill="#00002D"/>
<path d="M659.986 314.672L660.861 311.698L658.907 309.291L662.006 309.204L663.692 306.601L664.732 309.522L667.728 310.321L665.271 312.213L665.437 315.308L662.879 313.557L659.986 314.672Z" fill="#00002D"/>
<path d="M21.6739 498.28L22.1868 495.923L24.4185 495.01L22.3362 493.794L22.1571 491.389L20.3574 492.994L18.0148 492.421L18.9852 494.629L17.7164 496.679L20.1158 496.439L21.6739 498.28Z" fill="#00001E"/>
<path d="M1379.51 218.252L1379 215.896L1376.77 214.982L1378.85 213.766L1379.03 211.361L1380.83 212.966L1383.17 212.393L1382.2 214.601L1383.47 216.652L1381.07 216.411L1379.51 218.252Z" fill="#00002D"/>
<path d="M267.205 381.543L267.718 379.186L269.95 378.273L267.867 377.057L267.688 374.652L265.889 376.257L263.546 375.684L264.516 377.892L263.248 379.942L265.647 379.702L267.205 381.543Z" fill="#00001E"/>
<path d="M599.542 622.138L597.186 621.625L596.273 619.394L595.057 621.476L592.652 621.655L594.257 623.455L593.683 625.797L595.892 624.827L597.942 626.096L597.702 623.696L599.542 622.138Z" fill="#00001E"/>
<path d="M576.542 223.543L574.186 224.055L573.273 226.287L572.057 224.205L569.652 224.026L571.257 222.226L570.683 219.883L572.892 220.854L574.942 219.585L574.702 221.984L576.542 223.543Z" fill="#00001E"/>
<path d="M282.21 405.324L279.853 405.836L278.94 408.068L277.724 405.986L275.319 405.807L276.924 404.007L276.351 401.664L278.559 402.635L280.609 401.366L280.369 403.765L282.21 405.324Z" fill="#00001E"/>
<path d="M63.8064 177.399L61.4011 177.571L59.8953 175.688L59.3163 178.029L57.0593 178.879L59.1067 180.153L59.2179 182.562L61.0625 181.008L63.3877 181.647L62.4803 179.413L63.8064 177.399Z" fill="#00001E"/>
<path d="M372.398 20.1439L372.571 17.7386L370.688 16.2328L373.029 15.6538L373.879 13.3968L375.153 15.4442L377.562 15.5553L376.008 17.3999L376.647 19.7252L374.413 18.8177L372.398 20.1439Z" fill="#00001E"/>
</g>
<defs>
<filter id="filter0_f_501_2454" x="961.283" y="287.547" width="960.257" height="969.781" filterUnits="userSpaceOnUse" color-interpolation-filters="sRGB">
<feFlood flood-opacity="0" result="BackgroundImageFix"/>
<feBlend mode="normal" in="SourceGraphic" in2="BackgroundImageFix" result="shape"/>
<feGaussianBlur stdDeviation="170" result="effect1_foregroundBlur_501_2454"/>
</filter>
<filter id="filter1_f_501_2454" x="-406.036" y="6.98114" width="783.247" height="791.105" filterUnits="userSpaceOnUse" color-interpolation-filters="sRGB">
<feFlood flood-opacity="0" result="BackgroundImageFix"/>
<feBlend mode="normal" in="SourceGraphic" in2="BackgroundImageFix" result="shape"/>
<feGaussianBlur stdDeviation="138" result="effect1_foregroundBlur_501_2454"/>
</filter>
<clipPath id="clip0_501_2454">
<rect width="1440" height="820" fill="white"/>
</clipPath>
</defs>
</svg>
