<svg width="197" height="197" viewBox="0 0 197 197" fill="none" xmlns="http://www.w3.org/2000/svg">
<path opacity="0.1" d="M197 98.5C197 152.9 152.9 197 98.5 197C44.1 197 0 152.9 0 98.5C0 44.1 44.1 0 98.5 0C152.9 0 197 44.1 197 98.5ZM29.7666 98.5C29.7666 136.46 60.5396 167.233 98.5 167.233C136.46 167.233 167.233 136.46 167.233 98.5C167.233 60.5396 136.46 29.7666 98.5 29.7666C60.5396 29.7666 29.7666 60.5396 29.7666 98.5Z" fill="#D9D9D9"/>
<path d="M98.5 14.775C98.5 6.615 105.152 -0.113552 113.22 1.1059C131.319 3.84143 148.404 11.5857 162.471 23.6C180.305 38.8316 192.118 59.9268 195.787 83.0912C199.456 106.256 194.739 129.969 182.485 149.966C170.231 169.963 151.243 184.932 128.938 192.179C106.633 199.426 82.4735 198.477 60.8057 189.502C39.1378 180.527 21.3833 164.115 10.7358 143.218C0.0883385 122.321 -2.75347 98.3107 2.72157 75.5056C7.04015 57.5175 16.3096 41.2104 29.3443 28.3588C35.155 22.6298 44.4914 24.1634 49.2877 30.765C54.084 37.3666 52.4674 46.5219 47.0368 52.6125C39.5144 61.0493 34.129 71.2663 31.4551 82.4039C27.6226 98.3675 29.6118 115.175 37.0651 129.803C44.5183 144.43 56.9464 155.919 72.114 162.201C87.2815 168.484 104.193 169.149 119.807 164.075C135.42 159.002 148.712 148.524 157.29 134.526C165.868 120.528 169.169 103.929 166.601 87.7139C164.033 71.4988 155.763 56.7321 143.279 46.07C134.57 38.6311 124.207 33.5308 113.163 31.127C105.189 29.3916 98.5 22.935 98.5 14.775Z" fill="url(#paint0_linear_217_3)"/>
<defs>
<linearGradient id="paint0_linear_217_3" x1="1.97421e-07" y1="82" x2="154" y2="178" gradientUnits="userSpaceOnUse">
<stop stop-color="#DF9780"/>
<stop offset="1" stop-color="#A66DE9"/>
</linearGradient>
</defs>
</svg>
