<svg width="197" height="197" viewBox="0 0 197 197" fill="none" xmlns="http://www.w3.org/2000/svg">
<path opacity="0.1" d="M197 98.5C197 152.9 152.9 197 98.5 197C44.1 197 0 152.9 0 98.5C0 44.1 44.1 0 98.5 0C152.9 0 197 44.1 197 98.5ZM29.7666 98.5C29.7666 136.46 60.5396 167.233 98.5 167.233C136.46 167.233 167.233 136.46 167.233 98.5C167.233 60.5396 136.46 29.7666 98.5 29.7666C60.5396 29.7666 29.7666 60.5396 29.7666 98.5Z" fill="#D9D9D9"/>
<path d="M98.5 14.775C98.5 6.615 105.152 -0.113419 113.22 1.10605C126.193 3.06681 138.695 7.60779 149.966 14.5149C165.455 24.0064 178.017 37.5963 186.264 53.7819C194.511 69.9676 198.122 88.1186 196.696 106.228C195.271 124.338 188.866 141.701 178.188 156.397C167.511 171.093 152.977 182.55 136.194 189.502C119.411 196.454 101.033 198.629 83.0912 195.787C65.1493 192.946 48.3426 185.198 34.5294 173.4C24.4772 164.815 16.2952 154.328 10.4216 142.596C6.76851 135.299 11.1122 126.894 18.8728 124.372C26.6334 121.851 34.8412 126.217 38.9554 133.264C42.8349 139.909 47.817 145.888 53.7206 150.93C63.3898 159.188 75.1545 164.612 87.7139 166.601C100.273 168.59 113.138 167.068 124.886 162.201C136.634 157.335 146.807 149.315 154.282 139.028C161.756 128.74 166.24 116.586 167.237 103.91C168.235 91.233 165.708 78.5273 159.935 67.1974C154.162 55.8674 145.368 46.3545 134.526 39.7105C127.907 35.6539 120.681 32.7633 113.162 31.127C105.189 29.3917 98.5 22.935 98.5 14.775Z" fill="url(#paint0_linear_217_2)"/>
<defs>
<linearGradient id="paint0_linear_217_2" x1="1.97421e-07" y1="82" x2="154" y2="178" gradientUnits="userSpaceOnUse">
<stop stop-color="#CE9FFC"/>
<stop offset="1" stop-color="#7367F0"/>
</linearGradient>
</defs>
</svg>
