<svg
            class="item"
            width="28"
            height="17"
            viewBox="0 0 28 17"
            fill="none"
            xmlns="http://www.w3.org/2000/svg"
          >
            <path
              d="M1.43569 7.23041L12.0629 0.872199C12.3258 0.71223 12.6269 0.625801 12.9346 0.62194C13.2423 0.61808 13.5454 0.696931 13.8123 0.850254C14.1018 1.01885 14.3415 1.26107 14.5072 1.55231C14.6728 1.84354 14.7584 2.17343 14.7553 2.50845V6.95639L24.9239 0.870511C25.1869 0.710542 25.4879 0.624113 25.7956 0.620252C26.1033 0.616392 26.4065 0.695243 26.6733 0.848567C26.9628 1.01717 27.2026 1.25938 27.3682 1.55062C27.5338 1.84186 27.6194 2.17174 27.6163 2.50677V14.9419C27.6196 15.277 27.5341 15.607 27.3684 15.8984C27.2028 16.1897 26.9629 16.432 26.6733 16.6006C26.4065 16.7539 26.1033 16.8328 25.7956 16.8289C25.4879 16.8251 25.1869 16.7386 24.9239 16.5787L14.7553 10.49V14.9396C14.759 15.2751 14.6736 15.6056 14.508 15.8974C14.3423 16.1892 14.1022 16.4318 13.8123 16.6006C13.5454 16.7539 13.2423 16.8328 12.9346 16.8289C12.6269 16.8251 12.3258 16.7386 12.0629 16.5787L1.43569 10.2205C1.18305 10.0622 0.974762 9.84235 0.830378 9.58153C0.685995 9.32072 0.610249 9.02749 0.610249 8.72938C0.610249 8.43126 0.685995 8.13804 0.830378 7.87722C0.974762 7.6164 1.18305 7.39655 1.43569 7.23829V7.23041Z"
              fill="#E1E1E6"
            />
          </svg>