<svg width="20" height="21" viewBox="0 0 20 21" fill="none" xmlns="http://www.w3.org/2000/svg">
<path d="M18.1249 10.4058C18.1196 10.3083 18.08 10.2158 18.0131 10.1448C17.9462 10.0737 17.8562 10.0286 17.7593 10.0175L16.7577 9.85537C16.7126 9.84798 16.6712 9.82623 16.6395 9.79335C16.6078 9.76048 16.5876 9.71825 16.5819 9.67295C16.5628 9.5499 16.5429 9.42217 16.5155 9.30108C16.5067 9.25703 16.5119 9.21133 16.5303 9.17037C16.5487 9.1294 16.5795 9.09521 16.6182 9.07256L17.5081 8.57842C17.5964 8.53338 17.6652 8.45743 17.7012 8.36503C17.7372 8.27262 17.738 8.1702 17.7034 8.07725L17.5491 7.65147C17.5153 7.5582 17.4482 7.48069 17.3608 7.43377C17.2734 7.38685 17.1717 7.37382 17.0753 7.39717L16.0772 7.59248C16.0326 7.60046 15.9866 7.59414 15.9458 7.57443C15.9049 7.55472 15.8714 7.52262 15.8499 7.48272C15.7917 7.37373 15.7284 7.26279 15.6624 7.15381C15.6384 7.11498 15.6272 7.06963 15.6303 7.0241C15.6333 6.97857 15.6506 6.93515 15.6796 6.8999L16.3436 6.13272C16.4111 6.06029 16.4498 5.96577 16.4526 5.86684C16.4554 5.76791 16.4221 5.67135 16.3589 5.59522L16.069 5.24717C16.006 5.17078 15.9168 5.1205 15.8188 5.10607C15.7208 5.09163 15.621 5.11408 15.5386 5.16905L14.6647 5.69366C14.626 5.71687 14.5808 5.72701 14.5359 5.72257C14.4909 5.71814 14.4486 5.69938 14.4151 5.66905C14.3186 5.58428 14.2198 5.50264 14.1272 5.42725C14.0917 5.39921 14.066 5.36057 14.0539 5.31695C14.0419 5.27333 14.044 5.22699 14.06 5.18467L14.4218 4.23155C14.4612 4.1406 14.4658 4.03836 14.4347 3.94424C14.4037 3.85011 14.3392 3.77067 14.2534 3.721L13.8593 3.49092C13.7734 3.44143 13.6724 3.42535 13.5754 3.44574C13.4785 3.46614 13.3925 3.52159 13.3339 3.60147L12.6952 4.40381C12.6722 4.43868 12.6378 4.46447 12.5979 4.47673C12.558 4.48899 12.515 4.48696 12.4764 4.471C12.4526 4.46123 12.2511 4.37881 12.0944 4.32647C12.0514 4.31246 12.0141 4.28508 11.9878 4.24832C11.9615 4.21156 11.9477 4.16736 11.9483 4.12217L11.9636 3.10381C11.969 3.00437 11.938 2.90636 11.8764 2.82813C11.8148 2.7499 11.7267 2.69681 11.6288 2.67881L11.1815 2.60069C11.0841 2.58385 10.9838 2.60297 10.8994 2.65448C10.815 2.70599 10.7521 2.7864 10.7225 2.88076L10.3905 3.8499C10.3754 3.89293 10.347 3.92998 10.3093 3.95564C10.2716 3.9813 10.2267 3.99421 10.1811 3.99248H9.80027C9.75507 3.99341 9.71072 3.98006 9.67355 3.95432C9.63638 3.92858 9.60828 3.89176 9.59324 3.84912L9.26277 2.88545C9.2337 2.7904 9.17097 2.70921 9.08634 2.65708C9.00171 2.60495 8.90098 2.58545 8.80301 2.60225L8.35496 2.68037C8.25764 2.69823 8.17011 2.7508 8.10861 2.82831C8.04712 2.90583 8.01584 3.00303 8.02059 3.10186L8.03621 4.12373C8.03652 4.1696 8.02202 4.21434 7.99485 4.25129C7.96768 4.28824 7.9293 4.31543 7.88543 4.32881C7.79598 4.36358 7.60184 4.4378 7.51356 4.47061C7.43543 4.49873 7.35027 4.46787 7.28152 4.38858L6.64637 3.60733C6.58809 3.52696 6.50217 3.47098 6.40511 3.45014C6.30805 3.4293 6.20672 3.44508 6.12059 3.49444L5.72762 3.72217C5.64092 3.77194 5.5757 3.85203 5.54454 3.94702C5.51338 4.04201 5.51849 4.14517 5.55887 4.23662L5.9202 5.1874C5.93596 5.22982 5.93803 5.27611 5.92612 5.31976C5.91421 5.36341 5.88891 5.40223 5.85379 5.43076C5.75887 5.50889 5.6616 5.58701 5.56473 5.67373C5.53146 5.70383 5.48944 5.72249 5.44481 5.72699C5.40018 5.73148 5.35528 5.72158 5.31668 5.69873L4.45301 5.16397C4.37008 5.11002 4.27031 5.08819 4.17243 5.10258C4.07454 5.11696 3.98528 5.16657 3.92137 5.24209L3.6327 5.58936C3.56858 5.66497 3.53459 5.76157 3.53726 5.86067C3.53993 5.95978 3.57906 6.05442 3.64715 6.12647L4.31434 6.89287C4.34395 6.92741 4.36164 6.97056 4.36481 7.01594C4.36798 7.06132 4.35644 7.10651 4.33192 7.14483C4.26512 7.25108 4.20145 7.3628 4.14363 7.47451C4.12201 7.5147 4.08821 7.54701 4.04709 7.5668C4.00596 7.58659 3.95963 7.59284 3.91473 7.58467L2.91824 7.39209C2.82176 7.36881 2.72009 7.38187 2.63262 7.42877C2.54515 7.47568 2.47802 7.55314 2.44403 7.64639L2.28778 8.07139C2.25324 8.16446 2.25405 8.26697 2.29004 8.35948C2.32604 8.452 2.39473 8.52809 2.48309 8.57334L3.37293 9.06748C3.41295 9.08957 3.44469 9.12408 3.46337 9.1658C3.48204 9.20751 3.48663 9.25417 3.47645 9.29873L3.46707 9.34834C3.44676 9.45733 3.42801 9.56045 3.41004 9.67022C3.40383 9.71494 3.38363 9.75656 3.35234 9.78911C3.32105 9.82167 3.28027 9.84349 3.23582 9.85147L2.23231 10.0136C2.13417 10.0256 2.04377 10.073 1.978 10.1468C1.91222 10.2206 1.87557 10.3159 1.87488 10.4147V10.8671C1.87431 10.9663 1.91059 11.0623 1.97669 11.1363C2.04279 11.2104 2.13402 11.2572 2.2327 11.2679L3.23582 11.4296C3.2809 11.4369 3.32239 11.4587 3.35408 11.4915C3.38577 11.5244 3.40595 11.5667 3.4116 11.612C3.43074 11.7355 3.45067 11.8628 3.47801 11.9839C3.48682 12.0279 3.48166 12.0736 3.46324 12.1146C3.44482 12.1556 3.41407 12.1898 3.37528 12.2124L2.48582 12.7073C2.39746 12.7524 2.32874 12.8283 2.29273 12.9207C2.25672 13.0131 2.25593 13.1155 2.29051 13.2085L2.44676 13.6343C2.48067 13.7275 2.54774 13.805 2.63514 13.8519C2.72254 13.8988 2.82416 13.9118 2.92059 13.8886L3.91863 13.6952C3.96327 13.6871 4.00932 13.6934 4.05017 13.7131C4.09102 13.7328 4.12456 13.765 4.14598 13.805C4.20457 13.9144 4.26746 14.0249 4.33348 14.1339C4.35757 14.1727 4.36887 14.2181 4.36579 14.2636C4.3627 14.3092 4.34539 14.3526 4.31629 14.3878L3.65223 15.1546C3.58398 15.2265 3.54433 15.3208 3.54073 15.4198C3.53714 15.5189 3.56984 15.6158 3.6327 15.6925L3.92215 16.0405C3.98515 16.117 4.07432 16.1673 4.17234 16.1818C4.27036 16.1962 4.37025 16.1737 4.45262 16.1187L5.32645 15.594C5.36519 15.5708 5.41037 15.5607 5.45532 15.5651C5.50026 15.5696 5.54259 15.5883 5.57606 15.6187C5.67293 15.7034 5.77137 15.7851 5.86395 15.8605C5.89945 15.8885 5.92512 15.9271 5.93727 15.9707C5.94941 16.0143 5.9474 16.0606 5.93152 16.103L5.56942 17.0562C5.53002 17.1471 5.52541 17.2493 5.55645 17.3435C5.58748 17.4376 5.65201 17.517 5.73777 17.5667L6.1327 17.7948C6.21847 17.8444 6.31951 17.8605 6.41645 17.8402C6.51339 17.8199 6.59943 17.7645 6.65809 17.6847L7.30457 16.8897C7.35926 16.8222 7.4452 16.7921 7.50887 16.8179C7.64481 16.8741 7.73582 16.9058 7.89715 16.9597C7.94012 16.9737 7.9775 17.0011 8.00384 17.0378C8.03018 17.0746 8.04412 17.1188 8.04363 17.164L8.02801 18.1815C8.02274 18.2809 8.05379 18.3789 8.11538 18.4571C8.17698 18.5353 8.2649 18.5884 8.36277 18.6065L8.81004 18.6847C8.90751 18.7017 9.00784 18.6826 9.09229 18.6311C9.17675 18.5796 9.23957 18.499 9.26902 18.4046L9.60106 17.437C9.61608 17.394 9.64454 17.3569 9.68223 17.3312C9.71992 17.3055 9.76486 17.2926 9.81043 17.2944H10.1913C10.2365 17.2934 10.2809 17.3068 10.3181 17.3325C10.3552 17.3583 10.3833 17.3951 10.3983 17.4378L10.7292 18.4015C10.7548 18.4851 10.8066 18.5584 10.8769 18.6105C10.9472 18.6626 11.0323 18.6908 11.1198 18.6909C11.1431 18.691 11.1664 18.6889 11.1893 18.6847L11.6374 18.6065C11.7347 18.5887 11.8222 18.5361 11.8837 18.4586C11.9452 18.3811 11.9765 18.2839 11.9718 18.1851L11.9561 17.1632C11.9558 17.1182 11.9699 17.0742 11.9962 17.0377C12.0225 17.0012 12.0598 16.974 12.1026 16.9601C12.2526 16.9097 12.3581 16.869 12.4507 16.8331L12.4741 16.8241C12.5952 16.7823 12.6538 16.8331 12.6878 16.8753L13.3421 17.6812C13.4007 17.7609 13.4867 17.8162 13.5835 17.8365C13.6804 17.8568 13.7813 17.8407 13.8671 17.7913L14.2604 17.5636C14.3465 17.5139 14.4112 17.4342 14.4423 17.3398C14.4733 17.2455 14.4685 17.1429 14.4288 17.0519L14.0679 16.1011C14.0519 16.0587 14.0497 16.0124 14.0616 15.9687C14.0734 15.9251 14.0987 15.8862 14.1339 15.8577C14.2288 15.7796 14.3261 15.7015 14.4229 15.6147C14.4564 15.5846 14.4987 15.5659 14.5435 15.5616C14.5884 15.5572 14.6335 15.5674 14.6721 15.5905L15.5468 16.114C15.6297 16.168 15.7295 16.1899 15.8274 16.1755C15.9253 16.1611 16.0145 16.1114 16.0784 16.0358L16.3675 15.6882C16.4316 15.6126 16.4656 15.516 16.4629 15.4169C16.4602 15.3178 16.4211 15.2231 16.353 15.1511L15.6866 14.3827C15.657 14.3482 15.6393 14.305 15.6361 14.2596C15.633 14.2143 15.6445 14.1691 15.669 14.1308C15.7358 14.0249 15.7995 13.9132 15.8573 13.8011C15.879 13.761 15.9128 13.7287 15.9539 13.709C15.995 13.6892 16.0413 13.6829 16.0862 13.6909L17.0815 13.8851C17.178 13.9083 17.2797 13.8953 17.3671 13.8484C17.4546 13.8015 17.5217 13.724 17.5557 13.6308L17.71 13.2058C17.7446 13.1127 17.7437 13.0103 17.7077 12.9179C17.6717 12.8254 17.6031 12.7494 17.5147 12.7042L16.6241 12.2093C16.5846 12.187 16.5534 12.1526 16.5351 12.1111C16.5167 12.0697 16.5122 12.0234 16.5221 11.9792L16.5315 11.9296C16.5518 11.8206 16.5706 11.7175 16.5886 11.6077C16.5948 11.563 16.615 11.5214 16.6463 11.4888C16.6775 11.4563 16.7183 11.4344 16.7628 11.4265L17.7663 11.2647C17.8647 11.2529 17.9554 11.2056 18.0214 11.1316C18.0874 11.0577 18.1242 10.9623 18.1249 10.8632V10.4058ZM7.09168 14.0776C7.043 14.1623 6.97493 14.2342 6.89307 14.2874C6.81121 14.3406 6.71788 14.3737 6.62077 14.3838C6.52365 14.3939 6.42552 14.3809 6.33442 14.3457C6.24333 14.3106 6.16188 14.2543 6.09676 14.1815C5.21674 13.2085 4.73083 11.9425 4.73387 10.6305C4.7369 9.31856 5.22865 8.0548 6.11317 7.08584C6.17862 7.01311 6.26042 6.95698 6.35183 6.92206C6.44323 6.88714 6.54163 6.87444 6.63891 6.88501C6.73618 6.89558 6.82955 6.92911 6.91133 6.98284C6.99311 7.03656 7.06095 7.10896 7.10926 7.19405L8.89246 10.3327C8.94601 10.4263 8.97418 10.5323 8.97418 10.6401C8.97418 10.748 8.94601 10.854 8.89246 10.9476L7.09168 14.0776ZM9.99988 15.9206C9.62816 15.9207 9.25747 15.8814 8.89402 15.8034C8.79934 15.7823 8.71098 15.7391 8.63609 15.6774C8.56119 15.6158 8.50189 15.5373 8.46297 15.4484C8.42405 15.3596 8.40662 15.2628 8.41208 15.1659C8.41754 15.0691 8.44575 14.9748 8.49442 14.8909L10.2913 11.7659C10.3453 11.6718 10.4233 11.5935 10.5172 11.5391C10.6112 11.4847 10.7179 11.4561 10.8264 11.4562H14.4257C14.5226 11.456 14.6182 11.4787 14.7048 11.5224C14.7913 11.5661 14.8664 11.6296 14.9238 11.7077C14.9813 11.7858 15.0195 11.8763 15.0354 11.9719C15.0514 12.0676 15.0445 12.1656 15.0155 12.2581C14.3323 14.38 12.3436 15.9206 9.99988 15.9206ZM10.2932 9.51826L8.51551 6.3878C8.46733 6.30373 8.43961 6.20951 8.43458 6.11275C8.42955 6.016 8.44736 5.91941 8.48657 5.83081C8.52577 5.74221 8.58528 5.66407 8.66027 5.60272C8.73526 5.54137 8.82363 5.49852 8.91824 5.47764C9.27391 5.40269 9.63641 5.36498 9.99988 5.36514C12.3436 5.36514 14.3323 6.90576 15.0143 9.02881C15.0434 9.12132 15.0502 9.21936 15.0343 9.31499C15.0183 9.41063 14.9801 9.50116 14.9226 9.57926C14.8652 9.65736 14.7902 9.72083 14.7036 9.76453C14.6171 9.80822 14.5214 9.83092 14.4245 9.83076H10.8307C10.7215 9.83098 10.6142 9.80216 10.5197 9.74725C10.4253 9.69234 10.3471 9.61331 10.2932 9.51826Z" fill="#CAB3FF"/>
</svg>
