<svg width="48" height="48" viewBox="0 0 48 48" fill="none" xmlns="http://www.w3.org/2000/svg">
<path d="M46.5 24C46.5094 27.5722 45.3505 31.0495 43.2 33.9019C43.0816 34.0595 42.9332 34.1922 42.7635 34.2924C42.5938 34.3927 42.406 34.4586 42.2108 34.4862C42.0156 34.5139 41.8169 34.5029 41.626 34.4538C41.4351 34.4047 41.2557 34.3184 41.0981 34.2C40.9405 34.0816 40.8078 33.9332 40.7076 33.7635C40.6073 33.5938 40.5414 33.406 40.5137 33.2108C40.4861 33.0156 40.4971 32.8169 40.5462 32.626C40.5953 32.4351 40.6816 32.2557 40.8 32.0981C42.5603 29.7661 43.5086 26.9218 43.5 24C43.5 20.4196 42.0777 16.9858 39.5459 14.4541C37.0142 11.9223 33.5804 10.5 30 10.5C26.4196 10.5 22.9858 11.9223 20.4541 14.4541C17.9223 16.9858 16.5 20.4196 16.5 24C16.5 24.3978 16.342 24.7793 16.0607 25.0607C15.7793 25.342 15.3978 25.5 15 25.5C14.6022 25.5 14.2206 25.342 13.9393 25.0607C13.658 24.7793 13.5 24.3978 13.5 24C13.4993 22.4863 13.7068 20.9796 14.1169 19.5225C13.9125 19.5 13.7062 19.5 13.5 19.5C11.113 19.5 8.82386 20.4482 7.13603 22.136C5.44821 23.8239 4.49999 26.113 4.49999 28.5C4.49999 30.8869 5.44821 33.1761 7.13603 34.864C8.82386 36.5518 11.113 37.5 13.5 37.5H18C18.3978 37.5 18.7793 37.658 19.0607 37.9393C19.342 38.2206 19.5 38.6022 19.5 39C19.5 39.3978 19.342 39.7794 19.0607 40.0607C18.7793 40.342 18.3978 40.5 18 40.5H13.5C11.8503 40.5004 10.2183 40.1606 8.70583 39.5019C7.19336 38.8432 5.83296 37.8798 4.70957 36.6717C3.58618 35.4636 2.72395 34.0369 2.17672 32.4807C1.62948 30.9244 1.40901 29.272 1.52906 27.6267C1.64911 25.9814 2.1071 24.3786 2.87445 22.9182C3.64179 21.4579 4.70199 20.1714 5.98884 19.1392C7.27569 18.107 8.76154 17.3512 10.3536 16.9191C11.9457 16.4869 13.6097 16.3877 15.2419 16.6275C16.9039 13.3034 19.6394 10.6378 23.0053 9.0623C26.3713 7.48685 30.1706 7.09386 33.7877 7.947C37.4049 8.80014 40.6281 10.8494 42.9353 13.763C45.2425 16.6765 46.4986 20.2836 46.5 24ZM29.5612 22.9387C29.4219 22.7993 29.2565 22.6886 29.0744 22.6132C28.8923 22.5377 28.6971 22.4988 28.5 22.4988C28.3029 22.4988 28.1077 22.5377 27.9256 22.6132C27.7435 22.6886 27.5781 22.7993 27.4387 22.9387L21.4387 28.9387C21.2994 29.0781 21.1888 29.2436 21.1134 29.4256C21.038 29.6077 20.9992 29.8029 20.9992 30C20.9992 30.1971 21.038 30.3922 21.1134 30.5743C21.1888 30.7564 21.2994 30.9219 21.4387 31.0612C21.7202 31.3427 22.1019 31.5008 22.5 31.5008C22.6971 31.5008 22.8922 31.462 23.0743 31.3866C23.2564 31.3112 23.4219 31.2006 23.5612 31.0612L27 27.6206V39C27 39.3978 27.158 39.7794 27.4393 40.0607C27.7206 40.342 28.1022 40.5 28.5 40.5C28.8978 40.5 29.2794 40.342 29.5607 40.0607C29.842 39.7794 30 39.3978 30 39V27.6206L33.4387 31.0612C33.5781 31.2006 33.7436 31.3112 33.9256 31.3866C34.1077 31.462 34.3029 31.5008 34.5 31.5008C34.6971 31.5008 34.8923 31.462 35.0743 31.3866C35.2564 31.3112 35.4219 31.2006 35.5612 31.0612C35.7006 30.9219 35.8112 30.7564 35.8866 30.5743C35.962 30.3922 36.0008 30.1971 36.0008 30C36.0008 29.8029 35.962 29.6077 35.8866 29.4256C35.8112 29.2436 35.7006 29.0781 35.5612 28.9387L29.5612 22.9387Z" fill="#7C3AED"/>
</svg>
