<svg width="23" height="21" viewBox="0 0 23 21" fill="none" xmlns="http://www.w3.org/2000/svg">
<path d="M8.24782 20.25H7.00001C6.87463 20.25 6.75126 20.2185 6.64118 20.1585C6.53111 20.0984 6.43783 20.0118 6.3699 19.9064C6.30196 19.801 6.26153 19.6803 6.25229 19.5552C6.24306 19.4302 6.26532 19.3048 6.31704 19.1906L9.3386 12.5227L4.80157 12.4219L3.14688 14.4267C2.83141 14.8233 2.57969 15 1.93751 15H1.09751C0.964509 15.0043 0.832439 14.9764 0.71249 14.9188C0.59254 14.8612 0.488245 14.7755 0.408444 14.6691C0.296881 14.5186 0.187194 14.2636 0.294069 13.8998L1.22313 10.5717C1.23016 10.5469 1.2386 10.522 1.24798 10.4977C1.24844 10.4953 1.24844 10.4929 1.24798 10.4906C1.23829 10.4663 1.23 10.4414 1.22313 10.4161L0.293132 7.06687C0.19235 6.71016 0.302507 6.46078 0.413132 6.31406C0.487417 6.21549 0.583794 6.13573 0.694515 6.08118C0.805235 6.02664 0.92721 5.99883 1.05063 6H1.93751C2.41704 6 2.88251 6.21516 3.15626 6.5625L4.77673 8.53359L9.3386 8.46609L6.31798 1.80984C6.26618 1.69568 6.24384 1.57036 6.25298 1.44533C6.26211 1.3203 6.30245 1.19956 6.37029 1.09414C6.43813 0.988715 6.53131 0.901982 6.64132 0.841864C6.75132 0.781747 6.87464 0.750163 7.00001 0.75H8.26141C8.43739 0.753536 8.61032 0.79667 8.76734 0.876197C8.92437 0.955724 9.06146 1.0696 9.16844 1.20937L15.0302 8.33438L17.7381 8.26312C17.9364 8.25234 18.4858 8.24859 18.6128 8.24859C21.2031 8.25 22.75 9.09094 22.75 10.5C22.75 10.9434 22.5728 11.7656 21.3874 12.2887C20.6875 12.5981 19.7538 12.7547 18.6119 12.7547C18.4863 12.7547 17.9383 12.7509 17.7372 12.7402L15.0297 12.668L9.15344 19.793C9.04637 19.9321 8.9094 20.0454 8.75265 20.1246C8.59589 20.2037 8.42337 20.2465 8.24782 20.25Z" fill="black" fill-opacity="0.8"/>
</svg>
