<svg width="160" height="160" viewBox="0 0 160 160" fill="none" xmlns="http://www.w3.org/2000/svg">
<g clip-path="url(#clip0_1_646)">
<path d="M160 0H0V160H160V0Z" fill="white"/>
<path d="M14.8275 10.0001H9.99994V14.8277H14.8275V10.0001Z" fill="black" fill-opacity="0.88"/>
<path d="M19.6551 10.0001H14.8275V14.8277H19.6551V10.0001Z" fill="black" fill-opacity="0.88"/>
<path d="M24.4827 10.0001H19.6551V14.8277H24.4827V10.0001Z" fill="black" fill-opacity="0.88"/>
<path d="M29.3103 10.0001H24.4827V14.8277H29.3103V10.0001Z" fill="black" fill-opacity="0.88"/>
<path d="M34.1379 10.0001H29.3103V14.8277H34.1379V10.0001Z" fill="black" fill-opacity="0.88"/>
<path d="M38.9655 10.0001H34.1379V14.8277H38.9655V10.0001Z" fill="black" fill-opacity="0.88"/>
<path d="M43.793 10.0001H38.9655V14.8277H43.793V10.0001Z" fill="black" fill-opacity="0.88"/>
<path d="M53.4482 10.0001H48.6206V14.8277H53.4482V10.0001Z" fill="black" fill-opacity="0.88"/>
<path d="M63.1034 10.0001H58.2758V14.8277H63.1034V10.0001Z" fill="black" fill-opacity="0.88"/>
<path d="M72.7586 10.0001H67.931V14.8277H72.7586V10.0001Z" fill="black" fill-opacity="0.88"/>
<path d="M87.2413 10.0001H82.4137V14.8277H87.2413V10.0001Z" fill="black" fill-opacity="0.88"/>
<path d="M92.0689 10.0001H87.2413V14.8277H92.0689V10.0001Z" fill="black" fill-opacity="0.88"/>
<path d="M96.8965 10.0001H92.0689V14.8277H96.8965V10.0001Z" fill="black" fill-opacity="0.88"/>
<path d="M101.724 10.0001H96.8965V14.8277H101.724V10.0001Z" fill="black" fill-opacity="0.88"/>
<path d="M106.552 10.0001H101.724V14.8277H106.552V10.0001Z" fill="black" fill-opacity="0.88"/>
<path d="M111.379 10.0001H106.552V14.8277H111.379V10.0001Z" fill="black" fill-opacity="0.88"/>
<path d="M121.034 10.0001H116.207V14.8277H121.034V10.0001Z" fill="black" fill-opacity="0.88"/>
<path d="M125.862 10.0001H121.034V14.8277H125.862V10.0001Z" fill="black" fill-opacity="0.88"/>
<path d="M130.69 10.0001H125.862V14.8277H130.69V10.0001Z" fill="black" fill-opacity="0.88"/>
<path d="M135.517 10.0001H130.69V14.8277H135.517V10.0001Z" fill="black" fill-opacity="0.88"/>
<path d="M140.345 10.0001H135.517V14.8277H140.345V10.0001Z" fill="black" fill-opacity="0.88"/>
<path d="M145.172 10.0001H140.345V14.8277H145.172V10.0001Z" fill="black" fill-opacity="0.88"/>
<path d="M150 10.0001H145.172V14.8277H150V10.0001Z" fill="black" fill-opacity="0.88"/>
<path d="M14.8275 14.8277H9.99994V19.6553H14.8275V14.8277Z" fill="black" fill-opacity="0.88"/>
<path d="M43.793 14.8277H38.9655V19.6553H43.793V14.8277Z" fill="black" fill-opacity="0.88"/>
<path d="M58.2758 14.8277H53.4482V19.6553H58.2758V14.8277Z" fill="black" fill-opacity="0.88"/>
<path d="M67.931 14.8277H63.1034V19.6553H67.931V14.8277Z" fill="black" fill-opacity="0.88"/>
<path d="M72.7586 14.8277H67.931V19.6553H72.7586V14.8277Z" fill="black" fill-opacity="0.88"/>
<path d="M82.4137 14.8277H77.5862V19.6553H82.4137V14.8277Z" fill="black" fill-opacity="0.88"/>
<path d="M96.8965 14.8277H92.0689V19.6553H96.8965V14.8277Z" fill="black" fill-opacity="0.88"/>
<path d="M101.724 14.8277H96.8965V19.6553H101.724V14.8277Z" fill="black" fill-opacity="0.88"/>
<path d="M106.552 14.8277H101.724V19.6553H106.552V14.8277Z" fill="black" fill-opacity="0.88"/>
<path d="M111.379 14.8277H106.552V19.6553H111.379V14.8277Z" fill="black" fill-opacity="0.88"/>
<path d="M121.034 14.8277H116.207V19.6553H121.034V14.8277Z" fill="black" fill-opacity="0.88"/>
<path d="M150 14.8277H145.172V19.6553H150V14.8277Z" fill="black" fill-opacity="0.88"/>
<path d="M14.8275 19.6553H9.99994V24.4829H14.8275V19.6553Z" fill="black" fill-opacity="0.88"/>
<path d="M24.4827 19.6553H19.6551V24.4829H24.4827V19.6553Z" fill="black" fill-opacity="0.88"/>
<path d="M29.3103 19.6553H24.4827V24.4829H29.3103V19.6553Z" fill="black" fill-opacity="0.88"/>
<path d="M34.1379 19.6553H29.3103V24.4829H34.1379V19.6553Z" fill="black" fill-opacity="0.88"/>
<path d="M43.793 19.6553H38.9655V24.4829H43.793V19.6553Z" fill="black" fill-opacity="0.88"/>
<path d="M58.2758 19.6553H53.4482V24.4829H58.2758V19.6553Z" fill="black" fill-opacity="0.88"/>
<path d="M72.7586 19.6553H67.931V24.4829H72.7586V19.6553Z" fill="black" fill-opacity="0.88"/>
<path d="M77.5862 19.6553H72.7586V24.4829H77.5862V19.6553Z" fill="black" fill-opacity="0.88"/>
<path d="M87.2413 19.6553H82.4137V24.4829H87.2413V19.6553Z" fill="black" fill-opacity="0.88"/>
<path d="M92.0689 19.6553H87.2413V24.4829H92.0689V19.6553Z" fill="black" fill-opacity="0.88"/>
<path d="M101.724 19.6553H96.8965V24.4829H101.724V19.6553Z" fill="black" fill-opacity="0.88"/>
<path d="M111.379 19.6553H106.552V24.4829H111.379V19.6553Z" fill="black" fill-opacity="0.88"/>
<path d="M121.034 19.6553H116.207V24.4829H121.034V19.6553Z" fill="black" fill-opacity="0.88"/>
<path d="M130.69 19.6553H125.862V24.4829H130.69V19.6553Z" fill="black" fill-opacity="0.88"/>
<path d="M135.517 19.6553H130.69V24.4829H135.517V19.6553Z" fill="black" fill-opacity="0.88"/>
<path d="M140.345 19.6553H135.517V24.4829H140.345V19.6553Z" fill="black" fill-opacity="0.88"/>
<path d="M150 19.6553H145.172V24.4829H150V19.6553Z" fill="black" fill-opacity="0.88"/>
<path d="M14.8275 24.4829H9.99994V29.3104H14.8275V24.4829Z" fill="black" fill-opacity="0.88"/>
<path d="M24.4827 24.4829H19.6551V29.3104H24.4827V24.4829Z" fill="black" fill-opacity="0.88"/>
<path d="M29.3103 24.4829H24.4827V29.3104H29.3103V24.4829Z" fill="black" fill-opacity="0.88"/>
<path d="M34.1379 24.4829H29.3103V29.3104H34.1379V24.4829Z" fill="black" fill-opacity="0.88"/>
<path d="M43.793 24.4829H38.9655V29.3104H43.793V24.4829Z" fill="black" fill-opacity="0.88"/>
<path d="M53.4482 24.4829H48.6206V29.3104H53.4482V24.4829Z" fill="black" fill-opacity="0.88"/>
<path d="M58.2758 24.4829H53.4482V29.3104H58.2758V24.4829Z" fill="black" fill-opacity="0.88"/>
<path d="M67.931 24.4829H63.1034V29.3104H67.931V24.4829Z" fill="black" fill-opacity="0.88"/>
<path d="M72.7586 24.4829H67.931V29.3104H72.7586V24.4829Z" fill="black" fill-opacity="0.88"/>
<path d="M77.5862 24.4829H72.7586V29.3104H77.5862V24.4829Z" fill="black" fill-opacity="0.88"/>
<path d="M92.0689 24.4829H87.2413V29.3104H92.0689V24.4829Z" fill="black" fill-opacity="0.88"/>
<path d="M96.8965 24.4829H92.0689V29.3104H96.8965V24.4829Z" fill="black" fill-opacity="0.88"/>
<path d="M101.724 24.4829H96.8965V29.3104H101.724V24.4829Z" fill="black" fill-opacity="0.88"/>
<path d="M106.552 24.4829H101.724V29.3104H106.552V24.4829Z" fill="black" fill-opacity="0.88"/>
<path d="M121.034 24.4829H116.207V29.3104H121.034V24.4829Z" fill="black" fill-opacity="0.88"/>
<path d="M130.69 24.4829H125.862V29.3104H130.69V24.4829Z" fill="black" fill-opacity="0.88"/>
<path d="M135.517 24.4829H130.69V29.3104H135.517V24.4829Z" fill="black" fill-opacity="0.88"/>
<path d="M140.345 24.4829H135.517V29.3104H140.345V24.4829Z" fill="black" fill-opacity="0.88"/>
<path d="M150 24.4829H145.172V29.3104H150V24.4829Z" fill="black" fill-opacity="0.88"/>
<path d="M14.8275 29.3104H9.99994V34.138H14.8275V29.3104Z" fill="black" fill-opacity="0.88"/>
<path d="M24.4827 29.3104H19.6551V34.138H24.4827V29.3104Z" fill="black" fill-opacity="0.88"/>
<path d="M29.3103 29.3104H24.4827V34.138H29.3103V29.3104Z" fill="black" fill-opacity="0.88"/>
<path d="M34.1379 29.3104H29.3103V34.138H34.1379V29.3104Z" fill="black" fill-opacity="0.88"/>
<path d="M43.793 29.3104H38.9655V34.138H43.793V29.3104Z" fill="black" fill-opacity="0.88"/>
<path d="M53.4482 29.3104H48.6206V34.138H53.4482V29.3104Z" fill="black" fill-opacity="0.88"/>
<path d="M58.2758 29.3104H53.4482V34.138H58.2758V29.3104Z" fill="black" fill-opacity="0.88"/>
<path d="M63.1034 29.3104H58.2758V34.138H63.1034V29.3104Z" fill="black" fill-opacity="0.88"/>
<path d="M72.7586 29.3104H67.931V34.138H72.7586V29.3104Z" fill="black" fill-opacity="0.88"/>
<path d="M87.2413 29.3104H82.4137V34.138H87.2413V29.3104Z" fill="black" fill-opacity="0.88"/>
<path d="M96.8965 29.3104H92.0689V34.138H96.8965V29.3104Z" fill="black" fill-opacity="0.88"/>
<path d="M101.724 29.3104H96.8965V34.138H101.724V29.3104Z" fill="black" fill-opacity="0.88"/>
<path d="M111.379 29.3104H106.552V34.138H111.379V29.3104Z" fill="black" fill-opacity="0.88"/>
<path d="M121.034 29.3104H116.207V34.138H121.034V29.3104Z" fill="black" fill-opacity="0.88"/>
<path d="M130.69 29.3104H125.862V34.138H130.69V29.3104Z" fill="black" fill-opacity="0.88"/>
<path d="M135.517 29.3104H130.69V34.138H135.517V29.3104Z" fill="black" fill-opacity="0.88"/>
<path d="M140.345 29.3104H135.517V34.138H140.345V29.3104Z" fill="black" fill-opacity="0.88"/>
<path d="M150 29.3104H145.172V34.138H150V29.3104Z" fill="black" fill-opacity="0.88"/>
<path d="M14.8275 34.138H9.99994V38.9656H14.8275V34.138Z" fill="black" fill-opacity="0.88"/>
<path d="M43.793 34.138H38.9655V38.9656H43.793V34.138Z" fill="black" fill-opacity="0.88"/>
<path d="M53.4482 34.138H48.6206V38.9656H53.4482V34.138Z" fill="black" fill-opacity="0.88"/>
<path d="M63.1034 34.138H58.2758V38.9656H63.1034V34.138Z" fill="black" fill-opacity="0.88"/>
<path d="M67.931 34.138H63.1034V38.9656H67.931V34.138Z" fill="black" fill-opacity="0.88"/>
<path d="M87.2413 34.138H82.4137V38.9656H87.2413V34.138Z" fill="black" fill-opacity="0.88"/>
<path d="M92.0689 34.138H87.2413V38.9656H92.0689V34.138Z" fill="black" fill-opacity="0.88"/>
<path d="M106.552 34.138H101.724V38.9656H106.552V34.138Z" fill="black" fill-opacity="0.88"/>
<path d="M121.034 34.138H116.207V38.9656H121.034V34.138Z" fill="black" fill-opacity="0.88"/>
<path d="M150 34.138H145.172V38.9656H150V34.138Z" fill="black" fill-opacity="0.88"/>
<path d="M14.8275 38.9656H9.99994V43.7932H14.8275V38.9656Z" fill="black" fill-opacity="0.88"/>
<path d="M19.6551 38.9656H14.8275V43.7932H19.6551V38.9656Z" fill="black" fill-opacity="0.88"/>
<path d="M24.4827 38.9656H19.6551V43.7932H24.4827V38.9656Z" fill="black" fill-opacity="0.88"/>
<path d="M29.3103 38.9656H24.4827V43.7932H29.3103V38.9656Z" fill="black" fill-opacity="0.88"/>
<path d="M34.1379 38.9656H29.3103V43.7932H34.1379V38.9656Z" fill="black" fill-opacity="0.88"/>
<path d="M38.9655 38.9656H34.1379V43.7932H38.9655V38.9656Z" fill="black" fill-opacity="0.88"/>
<path d="M43.793 38.9656H38.9655V43.7932H43.793V38.9656Z" fill="black" fill-opacity="0.88"/>
<path d="M53.4482 38.9656H48.6206V43.7932H53.4482V38.9656Z" fill="black" fill-opacity="0.88"/>
<path d="M63.1034 38.9656H58.2758V43.7932H63.1034V38.9656Z" fill="black" fill-opacity="0.88"/>
<path d="M72.7586 38.9656H67.931V43.7932H72.7586V38.9656Z" fill="black" fill-opacity="0.88"/>
<path d="M82.4137 38.9656H77.5862V43.7932H82.4137V38.9656Z" fill="black" fill-opacity="0.88"/>
<path d="M92.0689 38.9656H87.2413V43.7932H92.0689V38.9656Z" fill="black" fill-opacity="0.88"/>
<path d="M101.724 38.9656H96.8965V43.7932H101.724V38.9656Z" fill="black" fill-opacity="0.88"/>
<path d="M111.379 38.9656H106.552V43.7932H111.379V38.9656Z" fill="black" fill-opacity="0.88"/>
<path d="M121.034 38.9656H116.207V43.7932H121.034V38.9656Z" fill="black" fill-opacity="0.88"/>
<path d="M125.862 38.9656H121.034V43.7932H125.862V38.9656Z" fill="black" fill-opacity="0.88"/>
<path d="M130.69 38.9656H125.862V43.7932H130.69V38.9656Z" fill="black" fill-opacity="0.88"/>
<path d="M135.517 38.9656H130.69V43.7932H135.517V38.9656Z" fill="black" fill-opacity="0.88"/>
<path d="M140.345 38.9656H135.517V43.7932H140.345V38.9656Z" fill="black" fill-opacity="0.88"/>
<path d="M145.172 38.9656H140.345V43.7932H145.172V38.9656Z" fill="black" fill-opacity="0.88"/>
<path d="M150 38.9656H145.172V43.7932H150V38.9656Z" fill="black" fill-opacity="0.88"/>
<path d="M53.4482 43.7932H48.6206V48.6208H53.4482V43.7932Z" fill="black" fill-opacity="0.88"/>
<path d="M58.2758 43.7932H53.4482V48.6208H58.2758V43.7932Z" fill="black" fill-opacity="0.88"/>
<path d="M77.5862 43.7932H72.7586V48.6208H77.5862V43.7932Z" fill="black" fill-opacity="0.88"/>
<path d="M106.552 43.7932H101.724V48.6208H106.552V43.7932Z" fill="black" fill-opacity="0.88"/>
<path d="M14.8275 48.6208H9.99994V53.4484H14.8275V48.6208Z" fill="black" fill-opacity="0.88"/>
<path d="M19.6551 48.6208H14.8275V53.4484H19.6551V48.6208Z" fill="black" fill-opacity="0.88"/>
<path d="M24.4827 48.6208H19.6551V53.4484H24.4827V48.6208Z" fill="black" fill-opacity="0.88"/>
<path d="M34.1379 48.6208H29.3103V53.4484H34.1379V48.6208Z" fill="black" fill-opacity="0.88"/>
<path d="M43.793 48.6208H38.9655V53.4484H43.793V48.6208Z" fill="black" fill-opacity="0.88"/>
<path d="M53.4482 48.6208H48.6206V53.4484H53.4482V48.6208Z" fill="black" fill-opacity="0.88"/>
<path d="M72.7586 48.6208H67.931V53.4484H72.7586V48.6208Z" fill="black" fill-opacity="0.88"/>
<path d="M101.724 48.6208H96.8965V53.4484H101.724V48.6208Z" fill="black" fill-opacity="0.88"/>
<path d="M116.207 48.6208H111.379V53.4484H116.207V48.6208Z" fill="black" fill-opacity="0.88"/>
<path d="M121.034 48.6208H116.207V53.4484H121.034V48.6208Z" fill="black" fill-opacity="0.88"/>
<path d="M125.862 48.6208H121.034V53.4484H125.862V48.6208Z" fill="black" fill-opacity="0.88"/>
<path d="M130.69 48.6208H125.862V53.4484H130.69V48.6208Z" fill="black" fill-opacity="0.88"/>
<path d="M135.517 48.6208H130.69V53.4484H135.517V48.6208Z" fill="black" fill-opacity="0.88"/>
<path d="M150 48.6208H145.172V53.4484H150V48.6208Z" fill="black" fill-opacity="0.88"/>
<path d="M19.6551 53.4484H14.8275V58.276H19.6551V53.4484Z" fill="black" fill-opacity="0.88"/>
<path d="M29.3103 53.4484H24.4827V58.276H29.3103V53.4484Z" fill="black" fill-opacity="0.88"/>
<path d="M48.6206 53.4484H43.793V58.276H48.6206V53.4484Z" fill="black" fill-opacity="0.88"/>
<path d="M53.4482 53.4484H48.6206V58.276H53.4482V53.4484Z" fill="black" fill-opacity="0.88"/>
<path d="M72.7586 53.4484H67.931V58.276H72.7586V53.4484Z" fill="black" fill-opacity="0.88"/>
<path d="M77.5862 53.4484H72.7586V58.276H77.5862V53.4484Z" fill="black" fill-opacity="0.88"/>
<path d="M92.0689 53.4484H87.2413V58.276H92.0689V53.4484Z" fill="black" fill-opacity="0.88"/>
<path d="M96.8965 53.4484H92.0689V58.276H96.8965V53.4484Z" fill="black" fill-opacity="0.88"/>
<path d="M111.379 53.4484H106.552V58.276H111.379V53.4484Z" fill="black" fill-opacity="0.88"/>
<path d="M145.172 53.4484H140.345V58.276H145.172V53.4484Z" fill="black" fill-opacity="0.88"/>
<path d="M150 53.4484H145.172V58.276H150V53.4484Z" fill="black" fill-opacity="0.88"/>
<path d="M34.1379 58.276H29.3103V63.1035H34.1379V58.276Z" fill="black" fill-opacity="0.88"/>
<path d="M38.9655 58.276H34.1379V63.1035H38.9655V58.276Z" fill="black" fill-opacity="0.88"/>
<path d="M43.793 58.276H38.9655V63.1035H43.793V58.276Z" fill="black" fill-opacity="0.88"/>
<path d="M48.6206 58.276H43.793V63.1035H48.6206V58.276Z" fill="black" fill-opacity="0.88"/>
<path d="M53.4482 58.276H48.6206V63.1035H53.4482V58.276Z" fill="black" fill-opacity="0.88"/>
<path d="M67.931 58.276H63.1034V63.1035H67.931V58.276Z" fill="black" fill-opacity="0.88"/>
<path d="M72.7586 58.276H67.931V63.1035H72.7586V58.276Z" fill="black" fill-opacity="0.88"/>
<path d="M77.5862 58.276H72.7586V63.1035H77.5862V58.276Z" fill="black" fill-opacity="0.88"/>
<path d="M82.4137 58.276H77.5862V63.1035H82.4137V58.276Z" fill="black" fill-opacity="0.88"/>
<path d="M92.0689 58.276H87.2413V63.1035H92.0689V58.276Z" fill="black" fill-opacity="0.88"/>
<path d="M106.552 58.276H101.724V63.1035H106.552V58.276Z" fill="black" fill-opacity="0.88"/>
<path d="M121.034 58.276H116.207V63.1035H121.034V58.276Z" fill="black" fill-opacity="0.88"/>
<path d="M130.69 58.276H125.862V63.1035H130.69V58.276Z" fill="black" fill-opacity="0.88"/>
<path d="M140.345 58.276H135.517V63.1035H140.345V58.276Z" fill="black" fill-opacity="0.88"/>
<path d="M150 58.276H145.172V63.1035H150V58.276Z" fill="black" fill-opacity="0.88"/>
<path d="M14.8275 63.1035H9.99994V67.9311H14.8275V63.1035Z" fill="black" fill-opacity="0.88"/>
<path d="M19.6551 63.1035H14.8275V67.9311H19.6551V63.1035Z" fill="black" fill-opacity="0.88"/>
<path d="M24.4827 63.1035H19.6551V67.9311H24.4827V63.1035Z" fill="black" fill-opacity="0.88"/>
<path d="M29.3103 63.1035H24.4827V67.9311H29.3103V63.1035Z" fill="black" fill-opacity="0.88"/>
<path d="M38.9655 63.1035H34.1379V67.9311H38.9655V63.1035Z" fill="black" fill-opacity="0.88"/>
<path d="M63.1034 63.1035H58.2758V67.9311H63.1034V63.1035Z" fill="black" fill-opacity="0.88"/>
<path d="M67.931 63.1035H63.1034V67.9311H67.931V63.1035Z" fill="black" fill-opacity="0.88"/>
<path d="M72.7586 63.1035H67.931V67.9311H72.7586V63.1035Z" fill="black" fill-opacity="0.88"/>
<path d="M77.5862 63.1035H72.7586V67.9311H77.5862V63.1035Z" fill="black" fill-opacity="0.88"/>
<path d="M87.2413 63.1035H82.4137V67.9311H87.2413V63.1035Z" fill="black" fill-opacity="0.88"/>
<path d="M101.724 63.1035H96.8965V67.9311H101.724V63.1035Z" fill="black" fill-opacity="0.88"/>
<path d="M121.034 63.1035H116.207V67.9311H121.034V63.1035Z" fill="black" fill-opacity="0.88"/>
<path d="M125.862 63.1035H121.034V67.9311H125.862V63.1035Z" fill="black" fill-opacity="0.88"/>
<path d="M130.69 63.1035H125.862V67.9311H130.69V63.1035Z" fill="black" fill-opacity="0.88"/>
<path d="M145.172 63.1035H140.345V67.9311H145.172V63.1035Z" fill="black" fill-opacity="0.88"/>
<path d="M24.4827 67.9311H19.6551V72.7587H24.4827V67.9311Z" fill="black" fill-opacity="0.88"/>
<path d="M29.3103 67.9311H24.4827V72.7587H29.3103V67.9311Z" fill="black" fill-opacity="0.88"/>
<path d="M34.1379 67.9311H29.3103V72.7587H34.1379V67.9311Z" fill="black" fill-opacity="0.88"/>
<path d="M38.9655 67.9311H34.1379V72.7587H38.9655V67.9311Z" fill="black" fill-opacity="0.88"/>
<path d="M43.793 67.9311H38.9655V72.7587H43.793V67.9311Z" fill="black" fill-opacity="0.88"/>
<path d="M53.4482 67.9311H48.6206V72.7587H53.4482V67.9311Z" fill="black" fill-opacity="0.88"/>
<path d="M63.1034 67.9311H58.2758V72.7587H63.1034V67.9311Z" fill="black" fill-opacity="0.88"/>
<path d="M67.931 67.9311H63.1034V72.7587H67.931V67.9311Z" fill="black" fill-opacity="0.88"/>
<path d="M72.7586 67.9311H67.931V72.7587H72.7586V67.9311Z" fill="black" fill-opacity="0.88"/>
<path d="M77.5862 67.9311H72.7586V72.7587H77.5862V67.9311Z" fill="black" fill-opacity="0.88"/>
<path d="M82.4137 67.9311H77.5862V72.7587H82.4137V67.9311Z" fill="black" fill-opacity="0.88"/>
<path d="M87.2413 67.9311H82.4137V72.7587H87.2413V67.9311Z" fill="black" fill-opacity="0.88"/>
<path d="M96.8965 67.9311H92.0689V72.7587H96.8965V67.9311Z" fill="black" fill-opacity="0.88"/>
<path d="M106.552 67.9311H101.724V72.7587H106.552V67.9311Z" fill="black" fill-opacity="0.88"/>
<path d="M111.379 67.9311H106.552V72.7587H111.379V67.9311Z" fill="black" fill-opacity="0.88"/>
<path d="M125.862 67.9311H121.034V72.7587H125.862V67.9311Z" fill="black" fill-opacity="0.88"/>
<path d="M130.69 67.9311H125.862V72.7587H130.69V67.9311Z" fill="black" fill-opacity="0.88"/>
<path d="M48.6206 72.7587H43.793V77.5863H48.6206V72.7587Z" fill="black" fill-opacity="0.88"/>
<path d="M53.4482 72.7587H48.6206V77.5863H53.4482V72.7587Z" fill="black" fill-opacity="0.88"/>
<path d="M58.2758 72.7587H53.4482V77.5863H58.2758V72.7587Z" fill="black" fill-opacity="0.88"/>
<path d="M63.1034 72.7587H58.2758V77.5863H63.1034V72.7587Z" fill="black" fill-opacity="0.88"/>
<path d="M67.931 72.7587H63.1034V77.5863H67.931V72.7587Z" fill="black" fill-opacity="0.88"/>
<path d="M72.7586 72.7587H67.931V77.5863H72.7586V72.7587Z" fill="black" fill-opacity="0.88"/>
<path d="M77.5862 72.7587H72.7586V77.5863H77.5862V72.7587Z" fill="black" fill-opacity="0.88"/>
<path d="M82.4137 72.7587H77.5862V77.5863H82.4137V72.7587Z" fill="black" fill-opacity="0.88"/>
<path d="M96.8965 72.7587H92.0689V77.5863H96.8965V72.7587Z" fill="black" fill-opacity="0.88"/>
<path d="M111.379 72.7587H106.552V77.5863H111.379V72.7587Z" fill="black" fill-opacity="0.88"/>
<path d="M130.69 72.7587H125.862V77.5863H130.69V72.7587Z" fill="black" fill-opacity="0.88"/>
<path d="M140.345 72.7587H135.517V77.5863H140.345V72.7587Z" fill="black" fill-opacity="0.88"/>
<path d="M145.172 72.7587H140.345V77.5863H145.172V72.7587Z" fill="black" fill-opacity="0.88"/>
<path d="M34.1379 77.5863H29.3103V82.4139H34.1379V77.5863Z" fill="black" fill-opacity="0.88"/>
<path d="M43.793 77.5863H38.9655V82.4139H43.793V77.5863Z" fill="black" fill-opacity="0.88"/>
<path d="M77.5862 77.5863H72.7586V82.4139H77.5862V77.5863Z" fill="black" fill-opacity="0.88"/>
<path d="M92.0689 77.5863H87.2413V82.4139H92.0689V77.5863Z" fill="black" fill-opacity="0.88"/>
<path d="M96.8965 77.5863H92.0689V82.4139H96.8965V77.5863Z" fill="black" fill-opacity="0.88"/>
<path d="M106.552 77.5863H101.724V82.4139H106.552V77.5863Z" fill="black" fill-opacity="0.88"/>
<path d="M111.379 77.5863H106.552V82.4139H111.379V77.5863Z" fill="black" fill-opacity="0.88"/>
<path d="M116.207 77.5863H111.379V82.4139H116.207V77.5863Z" fill="black" fill-opacity="0.88"/>
<path d="M121.034 77.5863H116.207V82.4139H121.034V77.5863Z" fill="black" fill-opacity="0.88"/>
<path d="M125.862 77.5863H121.034V82.4139H125.862V77.5863Z" fill="black" fill-opacity="0.88"/>
<path d="M130.69 77.5863H125.862V82.4139H130.69V77.5863Z" fill="black" fill-opacity="0.88"/>
<path d="M140.345 77.5863H135.517V82.4139H140.345V77.5863Z" fill="black" fill-opacity="0.88"/>
<path d="M14.8275 82.4139H9.99994V87.2415H14.8275V82.4139Z" fill="black" fill-opacity="0.88"/>
<path d="M24.4827 82.4139H19.6551V87.2415H24.4827V82.4139Z" fill="black" fill-opacity="0.88"/>
<path d="M34.1379 82.4139H29.3103V87.2415H34.1379V82.4139Z" fill="black" fill-opacity="0.88"/>
<path d="M38.9655 82.4139H34.1379V87.2415H38.9655V82.4139Z" fill="black" fill-opacity="0.88"/>
<path d="M48.6206 82.4139H43.793V87.2415H48.6206V82.4139Z" fill="black" fill-opacity="0.88"/>
<path d="M63.1034 82.4139H58.2758V87.2415H63.1034V82.4139Z" fill="black" fill-opacity="0.88"/>
<path d="M72.7586 82.4139H67.931V87.2415H72.7586V82.4139Z" fill="black" fill-opacity="0.88"/>
<path d="M87.2413 82.4139H82.4137V87.2415H87.2413V82.4139Z" fill="black" fill-opacity="0.88"/>
<path d="M101.724 82.4139H96.8965V87.2415H101.724V82.4139Z" fill="black" fill-opacity="0.88"/>
<path d="M111.379 82.4139H106.552V87.2415H111.379V82.4139Z" fill="black" fill-opacity="0.88"/>
<path d="M125.862 82.4139H121.034V87.2415H125.862V82.4139Z" fill="black" fill-opacity="0.88"/>
<path d="M140.345 82.4139H135.517V87.2415H140.345V82.4139Z" fill="black" fill-opacity="0.88"/>
<path d="M145.172 82.4139H140.345V87.2415H145.172V82.4139Z" fill="black" fill-opacity="0.88"/>
<path d="M14.8275 87.2415H9.99994V92.0691H14.8275V87.2415Z" fill="black" fill-opacity="0.88"/>
<path d="M19.6551 87.2415H14.8275V92.0691H19.6551V87.2415Z" fill="black" fill-opacity="0.88"/>
<path d="M24.4827 87.2415H19.6551V92.0691H24.4827V87.2415Z" fill="black" fill-opacity="0.88"/>
<path d="M29.3103 87.2415H24.4827V92.0691H29.3103V87.2415Z" fill="black" fill-opacity="0.88"/>
<path d="M34.1379 87.2415H29.3103V92.0691H34.1379V87.2415Z" fill="black" fill-opacity="0.88"/>
<path d="M38.9655 87.2415H34.1379V92.0691H38.9655V87.2415Z" fill="black" fill-opacity="0.88"/>
<path d="M43.793 87.2415H38.9655V92.0691H43.793V87.2415Z" fill="black" fill-opacity="0.88"/>
<path d="M48.6206 87.2415H43.793V92.0691H48.6206V87.2415Z" fill="black" fill-opacity="0.88"/>
<path d="M58.2758 87.2415H53.4482V92.0691H58.2758V87.2415Z" fill="black" fill-opacity="0.88"/>
<path d="M63.1034 87.2415H58.2758V92.0691H63.1034V87.2415Z" fill="black" fill-opacity="0.88"/>
<path d="M67.931 87.2415H63.1034V92.0691H67.931V87.2415Z" fill="black" fill-opacity="0.88"/>
<path d="M72.7586 87.2415H67.931V92.0691H72.7586V87.2415Z" fill="black" fill-opacity="0.88"/>
<path d="M77.5862 87.2415H72.7586V92.0691H77.5862V87.2415Z" fill="black" fill-opacity="0.88"/>
<path d="M82.4137 87.2415H77.5862V92.0691H82.4137V87.2415Z" fill="black" fill-opacity="0.88"/>
<path d="M92.0689 87.2415H87.2413V92.0691H92.0689V87.2415Z" fill="black" fill-opacity="0.88"/>
<path d="M96.8965 87.2415H92.0689V92.0691H96.8965V87.2415Z" fill="black" fill-opacity="0.88"/>
<path d="M111.379 87.2415H106.552V92.0691H111.379V87.2415Z" fill="black" fill-opacity="0.88"/>
<path d="M130.69 87.2415H125.862V92.0691H130.69V87.2415Z" fill="black" fill-opacity="0.88"/>
<path d="M19.6551 92.0691H14.8275V96.8966H19.6551V92.0691Z" fill="black" fill-opacity="0.88"/>
<path d="M29.3103 92.0691H24.4827V96.8966H29.3103V92.0691Z" fill="black" fill-opacity="0.88"/>
<path d="M34.1379 92.0691H29.3103V96.8966H34.1379V92.0691Z" fill="black" fill-opacity="0.88"/>
<path d="M53.4482 92.0691H48.6206V96.8966H53.4482V92.0691Z" fill="black" fill-opacity="0.88"/>
<path d="M58.2758 92.0691H53.4482V96.8966H58.2758V92.0691Z" fill="black" fill-opacity="0.88"/>
<path d="M67.931 92.0691H63.1034V96.8966H67.931V92.0691Z" fill="black" fill-opacity="0.88"/>
<path d="M77.5862 92.0691H72.7586V96.8966H77.5862V92.0691Z" fill="black" fill-opacity="0.88"/>
<path d="M111.379 92.0691H106.552V96.8966H111.379V92.0691Z" fill="black" fill-opacity="0.88"/>
<path d="M125.862 92.0691H121.034V96.8966H125.862V92.0691Z" fill="black" fill-opacity="0.88"/>
<path d="M140.345 92.0691H135.517V96.8966H140.345V92.0691Z" fill="black" fill-opacity="0.88"/>
<path d="M14.8275 96.8966H9.99994V101.724H14.8275V96.8966Z" fill="black" fill-opacity="0.88"/>
<path d="M24.4827 96.8966H19.6551V101.724H24.4827V96.8966Z" fill="black" fill-opacity="0.88"/>
<path d="M34.1379 96.8966H29.3103V101.724H34.1379V96.8966Z" fill="black" fill-opacity="0.88"/>
<path d="M38.9655 96.8966H34.1379V101.724H38.9655V96.8966Z" fill="black" fill-opacity="0.88"/>
<path d="M43.793 96.8966H38.9655V101.724H43.793V96.8966Z" fill="black" fill-opacity="0.88"/>
<path d="M58.2758 96.8966H53.4482V101.724H58.2758V96.8966Z" fill="black" fill-opacity="0.88"/>
<path d="M77.5862 96.8966H72.7586V101.724H77.5862V96.8966Z" fill="black" fill-opacity="0.88"/>
<path d="M92.0689 96.8966H87.2413V101.724H92.0689V96.8966Z" fill="black" fill-opacity="0.88"/>
<path d="M96.8965 96.8966H92.0689V101.724H96.8965V96.8966Z" fill="black" fill-opacity="0.88"/>
<path d="M106.552 96.8966H101.724V101.724H106.552V96.8966Z" fill="black" fill-opacity="0.88"/>
<path d="M116.207 96.8966H111.379V101.724H116.207V96.8966Z" fill="black" fill-opacity="0.88"/>
<path d="M121.034 96.8966H116.207V101.724H121.034V96.8966Z" fill="black" fill-opacity="0.88"/>
<path d="M125.862 96.8966H121.034V101.724H125.862V96.8966Z" fill="black" fill-opacity="0.88"/>
<path d="M140.345 96.8966H135.517V101.724H140.345V96.8966Z" fill="black" fill-opacity="0.88"/>
<path d="M145.172 96.8966H140.345V101.724H145.172V96.8966Z" fill="black" fill-opacity="0.88"/>
<path d="M150 96.8966H145.172V101.724H150V96.8966Z" fill="black" fill-opacity="0.88"/>
<path d="M19.6551 101.724H14.8275V106.552H19.6551V101.724Z" fill="black" fill-opacity="0.88"/>
<path d="M24.4827 101.724H19.6551V106.552H24.4827V101.724Z" fill="black" fill-opacity="0.88"/>
<path d="M34.1379 101.724H29.3103V106.552H34.1379V101.724Z" fill="black" fill-opacity="0.88"/>
<path d="M48.6206 101.724H43.793V106.552H48.6206V101.724Z" fill="black" fill-opacity="0.88"/>
<path d="M53.4482 101.724H48.6206V106.552H53.4482V101.724Z" fill="black" fill-opacity="0.88"/>
<path d="M58.2758 101.724H53.4482V106.552H58.2758V101.724Z" fill="black" fill-opacity="0.88"/>
<path d="M72.7586 101.724H67.931V106.552H72.7586V101.724Z" fill="black" fill-opacity="0.88"/>
<path d="M82.4137 101.724H77.5862V106.552H82.4137V101.724Z" fill="black" fill-opacity="0.88"/>
<path d="M87.2413 101.724H82.4137V106.552H87.2413V101.724Z" fill="black" fill-opacity="0.88"/>
<path d="M96.8965 101.724H92.0689V106.552H96.8965V101.724Z" fill="black" fill-opacity="0.88"/>
<path d="M101.724 101.724H96.8965V106.552H101.724V101.724Z" fill="black" fill-opacity="0.88"/>
<path d="M106.552 101.724H101.724V106.552H106.552V101.724Z" fill="black" fill-opacity="0.88"/>
<path d="M111.379 101.724H106.552V106.552H111.379V101.724Z" fill="black" fill-opacity="0.88"/>
<path d="M116.207 101.724H111.379V106.552H116.207V101.724Z" fill="black" fill-opacity="0.88"/>
<path d="M121.034 101.724H116.207V106.552H121.034V101.724Z" fill="black" fill-opacity="0.88"/>
<path d="M125.862 101.724H121.034V106.552H125.862V101.724Z" fill="black" fill-opacity="0.88"/>
<path d="M130.69 101.724H125.862V106.552H130.69V101.724Z" fill="black" fill-opacity="0.88"/>
<path d="M150 101.724H145.172V106.552H150V101.724Z" fill="black" fill-opacity="0.88"/>
<path d="M14.8275 106.552H9.99994V111.379H14.8275V106.552Z" fill="black" fill-opacity="0.88"/>
<path d="M19.6551 106.552H14.8275V111.379H19.6551V106.552Z" fill="black" fill-opacity="0.88"/>
<path d="M24.4827 106.552H19.6551V111.379H24.4827V106.552Z" fill="black" fill-opacity="0.88"/>
<path d="M38.9655 106.552H34.1379V111.379H38.9655V106.552Z" fill="black" fill-opacity="0.88"/>
<path d="M43.793 106.552H38.9655V111.379H43.793V106.552Z" fill="black" fill-opacity="0.88"/>
<path d="M48.6206 106.552H43.793V111.379H48.6206V106.552Z" fill="black" fill-opacity="0.88"/>
<path d="M67.931 106.552H63.1034V111.379H67.931V106.552Z" fill="black" fill-opacity="0.88"/>
<path d="M72.7586 106.552H67.931V111.379H72.7586V106.552Z" fill="black" fill-opacity="0.88"/>
<path d="M82.4137 106.552H77.5862V111.379H82.4137V106.552Z" fill="black" fill-opacity="0.88"/>
<path d="M87.2413 106.552H82.4137V111.379H87.2413V106.552Z" fill="black" fill-opacity="0.88"/>
<path d="M96.8965 106.552H92.0689V111.379H96.8965V106.552Z" fill="black" fill-opacity="0.88"/>
<path d="M101.724 106.552H96.8965V111.379H101.724V106.552Z" fill="black" fill-opacity="0.88"/>
<path d="M111.379 106.552H106.552V111.379H111.379V106.552Z" fill="black" fill-opacity="0.88"/>
<path d="M116.207 106.552H111.379V111.379H116.207V106.552Z" fill="black" fill-opacity="0.88"/>
<path d="M121.034 106.552H116.207V111.379H121.034V106.552Z" fill="black" fill-opacity="0.88"/>
<path d="M125.862 106.552H121.034V111.379H125.862V106.552Z" fill="black" fill-opacity="0.88"/>
<path d="M130.69 106.552H125.862V111.379H130.69V106.552Z" fill="black" fill-opacity="0.88"/>
<path d="M135.517 106.552H130.69V111.379H135.517V106.552Z" fill="black" fill-opacity="0.88"/>
<path d="M150 106.552H145.172V111.379H150V106.552Z" fill="black" fill-opacity="0.88"/>
<path d="M53.4482 111.379H48.6206V116.207H53.4482V111.379Z" fill="black" fill-opacity="0.88"/>
<path d="M58.2758 111.379H53.4482V116.207H58.2758V111.379Z" fill="black" fill-opacity="0.88"/>
<path d="M63.1034 111.379H58.2758V116.207H63.1034V111.379Z" fill="black" fill-opacity="0.88"/>
<path d="M87.2413 111.379H82.4137V116.207H87.2413V111.379Z" fill="black" fill-opacity="0.88"/>
<path d="M101.724 111.379H96.8965V116.207H101.724V111.379Z" fill="black" fill-opacity="0.88"/>
<path d="M106.552 111.379H101.724V116.207H106.552V111.379Z" fill="black" fill-opacity="0.88"/>
<path d="M111.379 111.379H106.552V116.207H111.379V111.379Z" fill="black" fill-opacity="0.88"/>
<path d="M130.69 111.379H125.862V116.207H130.69V111.379Z" fill="black" fill-opacity="0.88"/>
<path d="M135.517 111.379H130.69V116.207H135.517V111.379Z" fill="black" fill-opacity="0.88"/>
<path d="M140.345 111.379H135.517V116.207H140.345V111.379Z" fill="black" fill-opacity="0.88"/>
<path d="M14.8275 116.207H9.99994V121.035H14.8275V116.207Z" fill="black" fill-opacity="0.88"/>
<path d="M19.6551 116.207H14.8275V121.035H19.6551V116.207Z" fill="black" fill-opacity="0.88"/>
<path d="M24.4827 116.207H19.6551V121.035H24.4827V116.207Z" fill="black" fill-opacity="0.88"/>
<path d="M29.3103 116.207H24.4827V121.035H29.3103V116.207Z" fill="black" fill-opacity="0.88"/>
<path d="M34.1379 116.207H29.3103V121.035H34.1379V116.207Z" fill="black" fill-opacity="0.88"/>
<path d="M38.9655 116.207H34.1379V121.035H38.9655V116.207Z" fill="black" fill-opacity="0.88"/>
<path d="M43.793 116.207H38.9655V121.035H43.793V116.207Z" fill="black" fill-opacity="0.88"/>
<path d="M72.7586 116.207H67.931V121.035H72.7586V116.207Z" fill="black" fill-opacity="0.88"/>
<path d="M77.5862 116.207H72.7586V121.035H77.5862V116.207Z" fill="black" fill-opacity="0.88"/>
<path d="M101.724 116.207H96.8965V121.035H101.724V116.207Z" fill="black" fill-opacity="0.88"/>
<path d="M106.552 116.207H101.724V121.035H106.552V116.207Z" fill="black" fill-opacity="0.88"/>
<path d="M111.379 116.207H106.552V121.035H111.379V116.207Z" fill="black" fill-opacity="0.88"/>
<path d="M121.034 116.207H116.207V121.035H121.034V116.207Z" fill="black" fill-opacity="0.88"/>
<path d="M130.69 116.207H125.862V121.035H130.69V116.207Z" fill="black" fill-opacity="0.88"/>
<path d="M150 116.207H145.172V121.035H150V116.207Z" fill="black" fill-opacity="0.88"/>
<path d="M14.8275 121.035H9.99994V125.862H14.8275V121.035Z" fill="black" fill-opacity="0.88"/>
<path d="M43.793 121.035H38.9655V125.862H43.793V121.035Z" fill="black" fill-opacity="0.88"/>
<path d="M58.2758 121.035H53.4482V125.862H58.2758V121.035Z" fill="black" fill-opacity="0.88"/>
<path d="M63.1034 121.035H58.2758V125.862H63.1034V121.035Z" fill="black" fill-opacity="0.88"/>
<path d="M72.7586 121.035H67.931V125.862H72.7586V121.035Z" fill="black" fill-opacity="0.88"/>
<path d="M82.4137 121.035H77.5862V125.862H82.4137V121.035Z" fill="black" fill-opacity="0.88"/>
<path d="M87.2413 121.035H82.4137V125.862H87.2413V121.035Z" fill="black" fill-opacity="0.88"/>
<path d="M106.552 121.035H101.724V125.862H106.552V121.035Z" fill="black" fill-opacity="0.88"/>
<path d="M111.379 121.035H106.552V125.862H111.379V121.035Z" fill="black" fill-opacity="0.88"/>
<path d="M130.69 121.035H125.862V125.862H130.69V121.035Z" fill="black" fill-opacity="0.88"/>
<path d="M135.517 121.035H130.69V125.862H135.517V121.035Z" fill="black" fill-opacity="0.88"/>
<path d="M140.345 121.035H135.517V125.862H140.345V121.035Z" fill="black" fill-opacity="0.88"/>
<path d="M145.172 121.035H140.345V125.862H145.172V121.035Z" fill="black" fill-opacity="0.88"/>
<path d="M14.8275 125.862H9.99994V130.69H14.8275V125.862Z" fill="black" fill-opacity="0.88"/>
<path d="M24.4827 125.862H19.6551V130.69H24.4827V125.862Z" fill="black" fill-opacity="0.88"/>
<path d="M29.3103 125.862H24.4827V130.69H29.3103V125.862Z" fill="black" fill-opacity="0.88"/>
<path d="M34.1379 125.862H29.3103V130.69H34.1379V125.862Z" fill="black" fill-opacity="0.88"/>
<path d="M43.793 125.862H38.9655V130.69H43.793V125.862Z" fill="black" fill-opacity="0.88"/>
<path d="M53.4482 125.862H48.6206V130.69H53.4482V125.862Z" fill="black" fill-opacity="0.88"/>
<path d="M58.2758 125.862H53.4482V130.69H58.2758V125.862Z" fill="black" fill-opacity="0.88"/>
<path d="M77.5862 125.862H72.7586V130.69H77.5862V125.862Z" fill="black" fill-opacity="0.88"/>
<path d="M87.2413 125.862H82.4137V130.69H87.2413V125.862Z" fill="black" fill-opacity="0.88"/>
<path d="M96.8965 125.862H92.0689V130.69H96.8965V125.862Z" fill="black" fill-opacity="0.88"/>
<path d="M106.552 125.862H101.724V130.69H106.552V125.862Z" fill="black" fill-opacity="0.88"/>
<path d="M111.379 125.862H106.552V130.69H111.379V125.862Z" fill="black" fill-opacity="0.88"/>
<path d="M116.207 125.862H111.379V130.69H116.207V125.862Z" fill="black" fill-opacity="0.88"/>
<path d="M121.034 125.862H116.207V130.69H121.034V125.862Z" fill="black" fill-opacity="0.88"/>
<path d="M125.862 125.862H121.034V130.69H125.862V125.862Z" fill="black" fill-opacity="0.88"/>
<path d="M130.69 125.862H125.862V130.69H130.69V125.862Z" fill="black" fill-opacity="0.88"/>
<path d="M140.345 125.862H135.517V130.69H140.345V125.862Z" fill="black" fill-opacity="0.88"/>
<path d="M150 125.862H145.172V130.69H150V125.862Z" fill="black" fill-opacity="0.88"/>
<path d="M14.8275 130.69H9.99994V135.517H14.8275V130.69Z" fill="black" fill-opacity="0.88"/>
<path d="M24.4827 130.69H19.6551V135.517H24.4827V130.69Z" fill="black" fill-opacity="0.88"/>
<path d="M29.3103 130.69H24.4827V135.517H29.3103V130.69Z" fill="black" fill-opacity="0.88"/>
<path d="M34.1379 130.69H29.3103V135.517H34.1379V130.69Z" fill="black" fill-opacity="0.88"/>
<path d="M43.793 130.69H38.9655V135.517H43.793V130.69Z" fill="black" fill-opacity="0.88"/>
<path d="M67.931 130.69H63.1034V135.517H67.931V130.69Z" fill="black" fill-opacity="0.88"/>
<path d="M77.5862 130.69H72.7586V135.517H77.5862V130.69Z" fill="black" fill-opacity="0.88"/>
<path d="M92.0689 130.69H87.2413V135.517H92.0689V130.69Z" fill="black" fill-opacity="0.88"/>
<path d="M101.724 130.69H96.8965V135.517H101.724V130.69Z" fill="black" fill-opacity="0.88"/>
<path d="M106.552 130.69H101.724V135.517H106.552V130.69Z" fill="black" fill-opacity="0.88"/>
<path d="M111.379 130.69H106.552V135.517H111.379V130.69Z" fill="black" fill-opacity="0.88"/>
<path d="M116.207 130.69H111.379V135.517H116.207V130.69Z" fill="black" fill-opacity="0.88"/>
<path d="M121.034 130.69H116.207V135.517H121.034V130.69Z" fill="black" fill-opacity="0.88"/>
<path d="M130.69 130.69H125.862V135.517H130.69V130.69Z" fill="black" fill-opacity="0.88"/>
<path d="M145.172 130.69H140.345V135.517H145.172V130.69Z" fill="black" fill-opacity="0.88"/>
<path d="M150 130.69H145.172V135.517H150V130.69Z" fill="black" fill-opacity="0.88"/>
<path d="M14.8275 135.517H9.99994V140.345H14.8275V135.517Z" fill="black" fill-opacity="0.88"/>
<path d="M24.4827 135.517H19.6551V140.345H24.4827V135.517Z" fill="black" fill-opacity="0.88"/>
<path d="M29.3103 135.517H24.4827V140.345H29.3103V135.517Z" fill="black" fill-opacity="0.88"/>
<path d="M34.1379 135.517H29.3103V140.345H34.1379V135.517Z" fill="black" fill-opacity="0.88"/>
<path d="M43.793 135.517H38.9655V140.345H43.793V135.517Z" fill="black" fill-opacity="0.88"/>
<path d="M53.4482 135.517H48.6206V140.345H53.4482V135.517Z" fill="black" fill-opacity="0.88"/>
<path d="M58.2758 135.517H53.4482V140.345H58.2758V135.517Z" fill="black" fill-opacity="0.88"/>
<path d="M63.1034 135.517H58.2758V140.345H63.1034V135.517Z" fill="black" fill-opacity="0.88"/>
<path d="M77.5862 135.517H72.7586V140.345H77.5862V135.517Z" fill="black" fill-opacity="0.88"/>
<path d="M82.4137 135.517H77.5862V140.345H82.4137V135.517Z" fill="black" fill-opacity="0.88"/>
<path d="M87.2413 135.517H82.4137V140.345H87.2413V135.517Z" fill="black" fill-opacity="0.88"/>
<path d="M96.8965 135.517H92.0689V140.345H96.8965V135.517Z" fill="black" fill-opacity="0.88"/>
<path d="M106.552 135.517H101.724V140.345H106.552V135.517Z" fill="black" fill-opacity="0.88"/>
<path d="M111.379 135.517H106.552V140.345H111.379V135.517Z" fill="black" fill-opacity="0.88"/>
<path d="M140.345 135.517H135.517V140.345H140.345V135.517Z" fill="black" fill-opacity="0.88"/>
<path d="M145.172 135.517H140.345V140.345H145.172V135.517Z" fill="black" fill-opacity="0.88"/>
<path d="M14.8275 140.345H9.99994V145.173H14.8275V140.345Z" fill="black" fill-opacity="0.88"/>
<path d="M43.793 140.345H38.9655V145.173H43.793V140.345Z" fill="black" fill-opacity="0.88"/>
<path d="M53.4482 140.345H48.6206V145.173H53.4482V140.345Z" fill="black" fill-opacity="0.88"/>
<path d="M58.2758 140.345H53.4482V145.173H58.2758V140.345Z" fill="black" fill-opacity="0.88"/>
<path d="M77.5862 140.345H72.7586V145.173H77.5862V140.345Z" fill="black" fill-opacity="0.88"/>
<path d="M96.8965 140.345H92.0689V145.173H96.8965V140.345Z" fill="black" fill-opacity="0.88"/>
<path d="M111.379 140.345H106.552V145.173H111.379V140.345Z" fill="black" fill-opacity="0.88"/>
<path d="M135.517 140.345H130.69V145.173H135.517V140.345Z" fill="black" fill-opacity="0.88"/>
<path d="M140.345 140.345H135.517V145.173H140.345V140.345Z" fill="black" fill-opacity="0.88"/>
<path d="M14.8275 145.173H9.99994V150H14.8275V145.173Z" fill="black" fill-opacity="0.88"/>
<path d="M19.6551 145.173H14.8275V150H19.6551V145.173Z" fill="black" fill-opacity="0.88"/>
<path d="M24.4827 145.173H19.6551V150H24.4827V145.173Z" fill="black" fill-opacity="0.88"/>
<path d="M29.3103 145.173H24.4827V150H29.3103V145.173Z" fill="black" fill-opacity="0.88"/>
<path d="M34.1379 145.173H29.3103V150H34.1379V145.173Z" fill="black" fill-opacity="0.88"/>
<path d="M38.9655 145.173H34.1379V150H38.9655V145.173Z" fill="black" fill-opacity="0.88"/>
<path d="M43.793 145.173H38.9655V150H43.793V145.173Z" fill="black" fill-opacity="0.88"/>
<path d="M53.4482 145.173H48.6206V150H53.4482V145.173Z" fill="black" fill-opacity="0.88"/>
<path d="M67.931 145.173H63.1034V150H67.931V145.173Z" fill="black" fill-opacity="0.88"/>
<path d="M72.7586 145.173H67.931V150H72.7586V145.173Z" fill="black" fill-opacity="0.88"/>
<path d="M77.5862 145.173H72.7586V150H77.5862V145.173Z" fill="black" fill-opacity="0.88"/>
<path d="M82.4137 145.173H77.5862V150H82.4137V145.173Z" fill="black" fill-opacity="0.88"/>
<path d="M87.2413 145.173H82.4137V150H87.2413V145.173Z" fill="black" fill-opacity="0.88"/>
<path d="M101.724 145.173H96.8965V150H101.724V145.173Z" fill="black" fill-opacity="0.88"/>
<path d="M140.345 145.173H135.517V150H140.345V145.173Z" fill="black" fill-opacity="0.88"/>
<path d="M145.172 145.173H140.345V150H145.172V145.173Z" fill="black" fill-opacity="0.88"/>
</g>
<defs>
<clipPath id="clip0_1_646">
<rect width="160" height="160" fill="white"/>
</clipPath>
</defs>
</svg>
