<svg width="21" height="20" viewBox="0 0 21 20" fill="none" xmlns="http://www.w3.org/2000/svg">
<path d="M10.5 0.25C8.57164 0.25 6.68657 0.821828 5.08319 1.89317C3.47982 2.96451 2.23013 4.48726 1.49218 6.26884C0.754225 8.05042 0.561142 10.0108 0.937348 11.9021C1.31355 13.7934 2.24215 15.5307 3.60571 16.8943C4.96928 18.2579 6.70656 19.1865 8.59787 19.5627C10.4892 19.9389 12.4496 19.7458 14.2312 19.0078C16.0127 18.2699 17.5355 17.0202 18.6068 15.4168C19.6782 13.8134 20.25 11.9284 20.25 10C20.2473 7.41498 19.2192 4.93661 17.3913 3.10872C15.5634 1.28084 13.085 0.25273 10.5 0.25ZM10.5 18.25C8.86831 18.25 7.27326 17.7661 5.91655 16.8596C4.55984 15.9531 3.50242 14.6646 2.878 13.1571C2.25358 11.6496 2.0902 9.99085 2.40853 8.3905C2.72685 6.79016 3.51259 5.32015 4.66637 4.16637C5.82016 3.01259 7.29017 2.22685 8.89051 1.90852C10.4909 1.59019 12.1497 1.75357 13.6571 2.37799C15.1646 3.00242 16.4531 4.05984 17.3596 5.41655C18.2661 6.77325 18.75 8.3683 18.75 10C18.7475 12.1873 17.8775 14.2843 16.3309 15.8309C14.7843 17.3775 12.6873 18.2475 10.5 18.25ZM7.60032 7.39937C8.02416 8.2007 8.24573 9.09348 8.24573 10C8.24573 10.9065 8.02416 11.7993 7.60032 12.6006C7.55549 12.6898 7.49332 12.7691 7.41744 12.8339C7.34157 12.8988 7.25352 12.9478 7.15845 12.9782C7.06338 13.0085 6.96321 13.0196 6.8638 13.0108C6.76439 13.002 6.66775 12.9734 6.57953 12.9267C6.49132 12.88 6.4133 12.8162 6.35006 12.739C6.28681 12.6618 6.23961 12.5728 6.21122 12.4771C6.18283 12.3814 6.17382 12.281 6.18472 12.1818C6.19562 12.0826 6.22621 11.9866 6.27469 11.8994C6.58856 11.3155 6.75284 10.6629 6.75284 10C6.75284 9.33709 6.58856 8.68452 6.27469 8.10063C6.18655 7.92531 6.17063 7.72244 6.23034 7.53553C6.29005 7.34861 6.42063 7.19254 6.59407 7.10079C6.76752 7.00903 6.97002 6.98891 7.15813 7.04473C7.34624 7.10055 7.50499 7.22787 7.60032 7.39937ZM12.8503 4.39937C13.7728 6.12305 14.2555 8.04781 14.2555 10.0028C14.2555 11.9578 13.7728 13.8826 12.8503 15.6063C12.7505 15.7702 12.5915 15.8896 12.4063 15.9399C12.221 15.9902 12.0235 15.9676 11.8544 15.8766C11.6854 15.7856 11.5576 15.6333 11.4975 15.451C11.4374 15.2687 11.4495 15.0702 11.5313 14.8966C12.3379 13.3905 12.76 11.7085 12.76 10C12.76 8.29151 12.3379 6.60949 11.5313 5.10344C11.4375 4.9279 11.4174 4.72231 11.4752 4.5319C11.533 4.34149 11.6642 4.18186 11.8397 4.08813C12.0152 3.99439 12.2208 3.97422 12.4112 4.03207C12.6016 4.08991 12.7613 4.22102 12.855 4.39656L12.8503 4.39937ZM10.2253 5.89937C10.8986 7.162 11.2508 8.57094 11.2508 10.0019C11.2508 11.4328 10.8986 12.8417 10.2253 14.1044C10.18 14.1931 10.1175 14.2718 10.0415 14.3361C9.96541 14.4004 9.87732 14.4488 9.78233 14.4787C9.68734 14.5086 9.58736 14.5192 9.48821 14.51C9.38906 14.5008 9.29273 14.472 9.20485 14.4252C9.11696 14.3784 9.03928 14.3145 8.97632 14.2374C8.91337 14.1603 8.8664 14.0713 8.83817 13.9759C8.80994 13.8804 8.80101 13.7802 8.81189 13.6812C8.82278 13.5823 8.85326 13.4864 8.90157 13.3994C9.45931 12.3538 9.75107 11.1869 9.75107 10.0019C9.75107 8.81681 9.45931 7.64998 8.90157 6.60437C8.85326 6.5173 8.82278 6.42149 8.81189 6.32251C8.80101 6.22353 8.80994 6.12338 8.83817 6.02789C8.8664 5.9324 8.91337 5.84349 8.97632 5.76635C9.03928 5.6892 9.11696 5.62536 9.20485 5.57856C9.29273 5.53175 9.38906 5.50291 9.48821 5.49373C9.58736 5.48454 9.68734 5.49519 9.78233 5.52505C9.87732 5.55492 9.96541 5.6034 10.0415 5.66766C10.1175 5.73193 10.18 5.8107 10.2253 5.89937Z" fill="#F9FAFB"/>
</svg>
