<svg width="33" height="32" viewBox="0 0 33 32" fill="none" xmlns="http://www.w3.org/2000/svg">
<g opacity="0.8" clip-path="url(#clip0_202_119)">
<path d="M30.1293 21.024L29.8293 19.524H26.4773L25.944 21.0133L23.2573 21.0187C24.5364 17.9429 25.8181 14.8682 27.1027 11.7947C27.3213 11.2733 27.7093 11.008 28.2813 11.0107C28.7187 11.0147 29.432 11.0147 30.4227 11.012L32.5 21.02L30.1293 21.024ZM27.232 17.4693H29.392L28.5853 13.7093L27.232 17.4693ZM9.91333 11.0093L12.6147 11.012L8.43867 21.0253L5.704 21.0227C5.01633 18.3778 4.33722 15.7306 3.66667 13.0813C3.53333 12.5533 3.26933 12.184 2.76133 12.0093C2.01097 11.7579 1.25711 11.517 0.5 11.2867L0.5 11.0133H4.816C5.56267 11.0133 5.99867 11.3747 6.13867 12.116C6.28 12.8587 6.63467 14.7493 7.20533 17.788L9.91333 11.0093ZM16.3267 11.012L14.1907 21.0227L11.62 21.02L13.7533 11.0093L16.3267 11.012ZM21.54 10.8267C22.3093 10.8267 23.2787 11.0667 23.836 11.2867L23.3853 13.3627C22.8813 13.16 22.052 12.8867 21.3547 12.896C20.3413 12.9133 19.7147 13.3387 19.7147 13.7467C19.7147 14.4107 20.8027 14.7453 21.9227 15.4707C23.2013 16.2973 23.3693 17.04 23.3533 17.8467C23.336 19.5213 21.9227 21.1733 18.9413 21.1733C17.5813 21.1533 17.0907 21.0387 15.9813 20.6453L16.4507 18.4787C17.58 18.952 18.0587 19.1027 19.024 19.1027C19.908 19.1027 20.6667 18.7453 20.6733 18.1227C20.6787 17.68 20.4067 17.46 19.4147 16.9133C18.4227 16.3653 17.0307 15.6067 17.0493 14.084C17.072 12.1347 18.9187 10.8267 21.5413 10.8267H21.54Z" fill="#F9FAFB"/>
</g>
<defs>
<clipPath id="clip0_202_119">
<rect width="32" height="32" fill="white" transform="translate(0.5)"/>
</clipPath>
</defs>
</svg>
