<svg width="98" height="152" viewBox="0 0 98 152" fill="none" xmlns="http://www.w3.org/2000/svg">
<g id="Emoji">
<path id="Vector" d="M8.29053 14.7022L17.2066 136.572H80.6281L90.3141 14.6137L8.29053 14.7022Z" fill="#C6E7FF"/>
<path id="Vector_2" d="M79.9746 133.989L17.6107 134.684L13.1062 66.9303H84.9924L79.9746 133.989Z" fill="#55ACEE"/>
<path id="Vector_3" d="M75.1332 151.219H22.8668C15.2914 151.219 9.97272 146.118 8.99483 137.896L0.255742 15.2569C0.0521985 12.394 2.2071 9.90722 5.07441 9.70368C7.99039 9.50456 10.4241 11.6595 10.6276 14.5179L19.3401 136.909C19.8136 140.821 21.8756 140.821 22.8668 140.821H75.1332C77.4164 140.821 78.266 140.821 78.673 136.763L87.3723 14.5179C87.5759 11.6595 90.0272 9.51341 92.9255 9.70368C95.7884 9.90722 97.9477 12.394 97.7442 15.2569L89.0316 137.644C87.9166 148.888 80.8589 151.219 75.1332 151.219Z" fill="#2B5677"/>
<path id="Vector_4" d="M48.9983 141.595H37.3742C12.8959 141.595 10.0861 129.719 8.78961 112.949C7.33826 94.2272 1.03284 15.186 1.03284 15.186L9.85158 14.4825C9.85158 14.4825 16.1658 93.5458 17.6128 112.267C18.7854 127.484 20.073 132.746 37.3742 132.746H48.9983C51.4408 132.746 53.4231 134.724 53.4231 137.17C53.4231 139.617 51.4408 141.595 48.9983 141.595Z" fill="#2B5677"/>
<path id="Vector_5" d="M60.622 141.595H48.9979C46.5553 141.595 44.573 139.617 44.573 137.17C44.573 134.724 46.5553 132.746 48.9979 132.746H60.622C77.9231 132.746 79.2064 127.484 80.3834 112.267C81.8347 93.5414 88.1446 14.4825 88.1446 14.4825L96.9677 15.186C96.9677 15.186 90.6579 94.2317 89.2065 112.949C87.91 129.719 85.1047 141.595 60.622 141.595Z" fill="#2B5677"/>
<path id="Vector_6" d="M97.6714 13.6418C97.6714 21.1774 85.5916 27.2837 48.998 27.2837C12.4089 27.2837 0.324585 21.1774 0.324585 13.6418C0.324585 6.1063 12.4044 0 48.998 0C85.5916 0 97.6714 6.1063 97.6714 13.6418Z" fill="#55ACEE"/>
<path id="Vector_7" d="M95.6024 13.8409C94.244 11.8099 91.5005 11.2612 89.4651 12.6196C80.2349 18.7834 57.2787 19.5711 49.2122 19.3587C49.1679 19.3542 49.1281 19.3808 49.0839 19.3764C49.044 19.3764 49.0131 19.3587 48.9733 19.3587C40.9244 19.5755 17.9639 18.7967 8.72033 12.6196C6.68489 11.2656 3.94148 11.8099 2.58305 13.8409C1.22462 15.8719 1.7733 18.6197 3.80431 19.9781C15.1762 27.5756 38.8359 28.2349 46.6723 28.2349C47.9511 28.2349 48.783 28.2172 49.0927 28.2084C49.4069 28.2172 50.2343 28.2349 51.5131 28.2349C59.3495 28.2349 83.0093 27.58 94.3811 19.9781C96.4166 18.6197 96.9652 15.8719 95.6024 13.8409Z" fill="#88C9F9"/>
<path id="Vector_8" d="M48.9578 73.1163C68.0853 73.1163 83.5912 70.216 83.5912 66.6383C83.5912 63.0606 68.0853 60.1603 48.9578 60.1603C29.8303 60.1603 14.3245 63.0606 14.3245 66.6383C14.3245 70.216 29.8303 73.1163 48.9578 73.1163Z" fill="#88C9F9"/>
<path id="Vector_9" d="M18.2092 135.144H80.8962V143.255H18.2092V135.144Z" fill="#2B5677"/>
</g>
</svg>
