<svg width="295" height="209" viewBox="0 0 295 209" fill="none" xmlns="http://www.w3.org/2000/svg">
<path d="M6.80646 13.1193C6.30646 13.1193 5.85618 13.0199 5.45561 12.821C5.05504 12.6222 4.73402 12.3494 4.49254 12.0028C4.25107 11.6562 4.11896 11.2614 4.09624 10.8182H5.11896C5.15874 11.2131 5.33771 11.5398 5.65589 11.7983C5.97692 12.054 6.36044 12.1818 6.80646 12.1818C7.16442 12.1818 7.4826 12.098 7.76101 11.9304C8.04226 11.7628 8.26243 11.5327 8.42152 11.2401C8.58345 10.9446 8.66442 10.6108 8.66442 10.2386C8.66442 9.85795 8.58061 9.51847 8.413 9.22017C8.24822 8.91903 8.02095 8.68182 7.73118 8.50852C7.44141 8.33523 7.11044 8.24716 6.73828 8.24432C6.47124 8.24148 6.19709 8.28267 5.91584 8.3679C5.63459 8.45028 5.40305 8.55682 5.22124 8.6875L4.2326 8.56818L4.76101 4.27273H9.2951V5.21023H5.64737L5.34055 7.78409H5.39169C5.57067 7.64205 5.7951 7.52415 6.06499 7.4304C6.33487 7.33665 6.61612 7.28977 6.90874 7.28977C7.44283 7.28977 7.91868 7.41761 8.33629 7.6733C8.75675 7.92614 9.08629 8.27273 9.32493 8.71307C9.56641 9.15341 9.68714 9.65625 9.68714 10.2216C9.68714 10.7784 9.56214 11.2756 9.31214 11.7131C9.06499 12.1477 8.72408 12.4915 8.28942 12.7443C7.85476 12.9943 7.36044 13.1193 6.80646 13.1193ZM12.5689 11.8068L12.5007 12.267C12.4524 12.5909 12.3786 12.9375 12.2791 13.3068C12.1825 13.6761 12.0817 14.0241 11.9766 14.3509C11.8714 14.6776 11.7848 14.9375 11.7166 15.1307H10.9496C10.9865 14.9489 11.0348 14.7088 11.0945 14.4105C11.1541 14.1122 11.2138 13.7784 11.2734 13.4091C11.3359 13.0426 11.3871 12.6676 11.4268 12.2841L11.478 11.8068H12.5689ZM17.0359 13.1193C16.4734 13.1193 15.9719 13.0227 15.5316 12.8295C15.0941 12.6364 14.7461 12.3679 14.4876 12.0241C14.2319 11.6776 14.0927 11.2756 14.07 10.8182H15.1438C15.1665 11.0994 15.2631 11.3423 15.4336 11.5469C15.604 11.7486 15.8271 11.9048 16.1026 12.0156C16.3782 12.1264 16.6836 12.1818 17.0188 12.1818C17.3938 12.1818 17.7262 12.1165 18.016 11.9858C18.3058 11.8551 18.533 11.6733 18.6978 11.4403C18.8626 11.2074 18.945 10.9375 18.945 10.6307C18.945 10.3097 18.8654 10.027 18.7063 9.78267C18.5472 9.53551 18.3143 9.34233 18.0075 9.20312C17.7006 9.06392 17.3256 8.99432 16.8825 8.99432H16.1836V8.05682H16.8825C17.229 8.05682 17.533 7.99432 17.7944 7.86932C18.0586 7.74432 18.2646 7.56818 18.4123 7.34091C18.5629 7.11364 18.6381 6.84659 18.6381 6.53977C18.6381 6.24432 18.5728 5.98722 18.4421 5.76847C18.3114 5.54972 18.1268 5.37926 17.8881 5.2571C17.6523 5.13494 17.3739 5.07386 17.0529 5.07386C16.7518 5.07386 16.4677 5.12926 16.2006 5.24006C15.9364 5.34801 15.7205 5.50568 15.5529 5.71307C15.3853 5.91761 15.2944 6.16477 15.2802 6.45455H14.2575C14.2745 5.99716 14.4123 5.59659 14.6708 5.25284C14.9293 4.90625 15.2674 4.63636 15.685 4.44318C16.1055 4.25 16.5671 4.15341 17.07 4.15341C17.6097 4.15341 18.0728 4.26278 18.4592 4.48153C18.8455 4.69744 19.1424 4.98295 19.3498 5.33807C19.5572 5.69318 19.6609 6.0767 19.6609 6.48864C19.6609 6.98011 19.5316 7.39915 19.2731 7.74574C19.0174 8.09233 18.6694 8.33239 18.229 8.46591V8.53409C18.7802 8.625 19.2106 8.85937 19.5202 9.23722C19.8299 9.61222 19.9847 10.0767 19.9847 10.6307C19.9847 11.1051 19.8555 11.5312 19.5969 11.9091C19.3413 12.2841 18.9918 12.5795 18.5487 12.7955C18.1055 13.0114 17.6012 13.1193 17.0359 13.1193Z" fill="#334155"/>
<path d="M6.8299 61.1193C6.3299 61.1193 5.87962 61.0199 5.47905 60.821C5.07848 60.6222 4.75746 60.3494 4.51598 60.0028C4.2745 59.6562 4.1424 59.2614 4.11967 58.8182H5.1424C5.18217 59.2131 5.36115 59.5398 5.67933 59.7983C6.00036 60.054 6.38388 60.1818 6.8299 60.1818C7.18786 60.1818 7.50604 60.098 7.78445 59.9304C8.0657 59.7628 8.28587 59.5327 8.44496 59.2401C8.60689 58.9446 8.68786 58.6108 8.68786 58.2386C8.68786 57.858 8.60405 57.5185 8.43643 57.2202C8.27166 56.919 8.04439 56.6818 7.75462 56.5085C7.46484 56.3352 7.13388 56.2472 6.76172 56.2443C6.49467 56.2415 6.22053 56.2827 5.93928 56.3679C5.65803 56.4503 5.42649 56.5568 5.24467 56.6875L4.25604 56.5682L4.78445 52.2727H9.31854V53.2102H5.67081L5.36399 55.7841H5.41513C5.59411 55.642 5.81854 55.5241 6.08842 55.4304C6.35831 55.3366 6.63956 55.2898 6.93217 55.2898C7.46626 55.2898 7.94212 55.4176 8.35973 55.6733C8.78018 55.9261 9.10973 56.2727 9.34837 56.7131C9.58984 57.1534 9.71058 57.6562 9.71058 58.2216C9.71058 58.7784 9.58558 59.2756 9.33558 59.7131C9.08842 60.1477 8.74751 60.4915 8.31286 60.7443C7.8782 60.9943 7.38388 61.1193 6.8299 61.1193ZM12.5923 59.8068L12.5241 60.267C12.4759 60.5909 12.402 60.9375 12.3026 61.3068C12.206 61.6761 12.1051 62.0241 12 62.3509C11.8949 62.6776 11.8082 62.9375 11.7401 63.1307H10.973C11.0099 62.9489 11.0582 62.7088 11.1179 62.4105C11.1776 62.1122 11.2372 61.7784 11.2969 61.4091C11.3594 61.0426 11.4105 60.6676 11.4503 60.2841L11.5014 59.8068H12.5923ZM14.4386 61V60.233L17.3192 57.0795C17.6573 56.7102 17.9357 56.3892 18.1545 56.1165C18.3732 55.8409 18.5352 55.5824 18.6403 55.3409C18.7482 55.0966 18.8022 54.8409 18.8022 54.5739C18.8022 54.267 18.7283 54.0014 18.5806 53.777C18.4357 53.5526 18.2369 53.3793 17.984 53.2571C17.7312 53.1349 17.4471 53.0739 17.1317 53.0739C16.7965 53.0739 16.5039 53.1435 16.2539 53.2827C16.0067 53.419 15.815 53.6108 15.6786 53.858C15.5451 54.1051 15.4783 54.3949 15.4783 54.7273H14.4727C14.4727 54.2159 14.5906 53.767 14.8263 53.3807C15.0621 52.9943 15.3832 52.6932 15.7894 52.4773C16.1985 52.2614 16.6573 52.1534 17.1658 52.1534C17.6772 52.1534 18.1303 52.2614 18.5252 52.4773C18.9201 52.6932 19.2298 52.9844 19.4542 53.3509C19.6786 53.7173 19.7908 54.125 19.7908 54.5739C19.7908 54.8949 19.7326 55.2088 19.6161 55.5156C19.5025 55.8196 19.3036 56.1591 19.0195 56.5341C18.7383 56.9062 18.3477 57.3608 17.8477 57.8977L15.8874 59.9943V60.0625H19.9442V61H14.4386Z" fill="#334155"/>
<path d="M8.19513 109.119C7.69513 109.119 7.24485 109.02 6.84428 108.821C6.44371 108.622 6.12269 108.349 5.88121 108.003C5.63974 107.656 5.50763 107.261 5.48491 106.818H6.50764C6.54741 107.213 6.72639 107.54 7.04457 107.798C7.36559 108.054 7.74911 108.182 8.19513 108.182C8.55309 108.182 8.87127 108.098 9.14968 107.93C9.43093 107.763 9.6511 107.533 9.81019 107.24C9.97212 106.945 10.0531 106.611 10.0531 106.239C10.0531 105.858 9.96928 105.518 9.80167 105.22C9.6369 104.919 9.40962 104.682 9.11985 104.509C8.83008 104.335 8.49911 104.247 8.12695 104.244C7.85991 104.241 7.58576 104.283 7.30451 104.368C7.02326 104.45 6.79173 104.557 6.60991 104.688L5.62127 104.568L6.14968 100.273H10.6838V101.21H7.03604L6.72923 103.784H6.78036C6.95934 103.642 7.18377 103.524 7.45366 103.43C7.72354 103.337 8.00479 103.29 8.29741 103.29C8.8315 103.29 9.30735 103.418 9.72496 103.673C10.1454 103.926 10.475 104.273 10.7136 104.713C10.9551 105.153 11.0758 105.656 11.0758 106.222C11.0758 106.778 10.9508 107.276 10.7008 107.713C10.4537 108.148 10.1127 108.491 9.67809 108.744C9.24343 108.994 8.74911 109.119 8.19513 109.119ZM13.9576 107.807L13.8894 108.267C13.8411 108.591 13.7672 108.938 13.6678 109.307C13.5712 109.676 13.4703 110.024 13.3652 110.351C13.2601 110.678 13.1735 110.938 13.1053 111.131H12.3382C12.3752 110.949 12.4235 110.709 12.4831 110.411C12.5428 110.112 12.6025 109.778 12.6621 109.409C12.7246 109.043 12.7757 108.668 12.8155 108.284L12.8667 107.807H13.9576ZM17.829 100.273V109H16.7722V101.381H16.7211L14.5904 102.795V101.722L16.7722 100.273H17.829Z" fill="#334155"/>
<path d="M6.86506 157.119C6.36506 157.119 5.91477 157.02 5.5142 156.821C5.11364 156.622 4.79261 156.349 4.55114 156.003C4.30966 155.656 4.17756 155.261 4.15483 154.818H5.17756C5.21733 155.213 5.39631 155.54 5.71449 155.798C6.03551 156.054 6.41903 156.182 6.86506 156.182C7.22301 156.182 7.54119 156.098 7.8196 155.93C8.10085 155.763 8.32102 155.533 8.48011 155.24C8.64205 154.945 8.72301 154.611 8.72301 154.239C8.72301 153.858 8.6392 153.518 8.47159 153.22C8.30682 152.919 8.07955 152.682 7.78977 152.509C7.5 152.335 7.16903 152.247 6.79688 152.244C6.52983 152.241 6.25568 152.283 5.97443 152.368C5.69318 152.45 5.46165 152.557 5.27983 152.688L4.29119 152.568L4.8196 148.273H9.35369V149.21H5.70597L5.39915 151.784H5.45028C5.62926 151.642 5.85369 151.524 6.12358 151.43C6.39347 151.337 6.67472 151.29 6.96733 151.29C7.50142 151.29 7.97727 151.418 8.39489 151.673C8.81534 151.926 9.14489 152.273 9.38352 152.713C9.625 153.153 9.74574 153.656 9.74574 154.222C9.74574 154.778 9.62074 155.276 9.37074 155.713C9.12358 156.148 8.78267 156.491 8.34801 156.744C7.91335 156.994 7.41903 157.119 6.86506 157.119ZM12.6275 155.807L12.5593 156.267C12.511 156.591 12.4371 156.938 12.3377 157.307C12.2411 157.676 12.1403 158.024 12.0352 158.351C11.93 158.678 11.8434 158.938 11.7752 159.131H11.0082C11.0451 158.949 11.0934 158.709 11.1531 158.411C11.2127 158.112 11.2724 157.778 11.332 157.409C11.3945 157.043 11.4457 156.668 11.4854 156.284L11.5366 155.807H12.6275ZM17.0156 157.119C16.3736 157.119 15.8267 156.945 15.375 156.595C14.9233 156.243 14.5781 155.733 14.3395 155.065C14.1009 154.395 13.9815 153.585 13.9815 152.636C13.9815 151.693 14.1009 150.888 14.3395 150.22C14.581 149.55 14.9276 149.038 15.3793 148.686C15.8338 148.331 16.3793 148.153 17.0156 148.153C17.652 148.153 18.196 148.331 18.6477 148.686C19.1023 149.038 19.4489 149.55 19.6875 150.22C19.929 150.888 20.0497 151.693 20.0497 152.636C20.0497 153.585 19.9304 154.395 19.6918 155.065C19.4531 155.733 19.108 156.243 18.6562 156.595C18.2045 156.945 17.6577 157.119 17.0156 157.119ZM17.0156 156.182C17.652 156.182 18.1463 155.875 18.4986 155.261C18.8509 154.648 19.027 153.773 19.027 152.636C19.027 151.881 18.946 151.237 18.7841 150.706C18.625 150.175 18.3949 149.77 18.0938 149.491C17.7955 149.213 17.4361 149.074 17.0156 149.074C16.3849 149.074 15.892 149.385 15.5369 150.007C15.1818 150.626 15.0043 151.503 15.0043 152.636C15.0043 153.392 15.0838 154.034 15.2429 154.562C15.402 155.091 15.6307 155.493 15.929 155.768C16.2301 156.044 16.5923 156.182 17.0156 156.182Z" fill="#334155"/>
<g opacity="0.3">
<line x1="287.713" y1="108.603" x2="32" y2="108.603" stroke="#94A3B8"/>
<line x1="287.713" y1="161.5" x2="32" y2="161.5" stroke="#94A3B8"/>
<line x1="287.713" y1="57.0851" x2="32" y2="57.0851" stroke="#94A3B8"/>
<line x1="287.713" y1="1.5" x2="32" y2="1.5" stroke="#94A3B8"/>
</g>
<path d="M44.7856 61.7881L32 73.3775V161H287.713L274.927 65.3191L262.142 1L249.356 93.6984L236.57 97.937L223.785 23.8388L210.999 11.6844L198.213 121.445L185.428 56.1214L172.642 47.4976L159.856 32.8924L147.071 101.608L134.285 138.045L121.5 114.878L108.714 116.496L95.9282 67.6969L83.1426 92.0887L70.3569 78.7834L57.5713 33.3805L44.7856 61.7881Z" fill="url(#paint0_linear_17_103)"/>
<path d="M32 73.3775L44.7856 61.7881L57.5713 33.3805L70.3569 78.7834L83.1426 92.0887L95.9282 67.6969L108.714 116.496L121.5 114.878L134.285 138.045L147.071 101.608L159.856 32.8924L172.642 47.4976L185.428 56.1214L198.213 121.445L210.999 11.6844L223.785 23.8388L236.57 97.937L249.356 93.6984L262.142 1L274.927 65.3191L287.713 161" stroke="#7C3AED" stroke-width="2"/>
<line x1="250.816" y1="1" x2="250.816" y2="161" stroke="#94A3B8" stroke-dasharray="4 4"/>
<circle cx="250.316" cy="93" r="4" fill="#7C3AED"/>
<g filter="url(#filter0_d_17_103)">
<rect x="133" y="41" width="146" height="40" rx="4" fill="white" shape-rendering="crispEdges"/>
<path d="M145.236 66.1392C144.652 66.1392 144.127 66.0232 143.66 65.7912C143.192 65.5592 142.818 65.241 142.536 64.8366C142.254 64.4323 142.1 63.9716 142.074 63.4545H143.267C143.313 63.9152 143.522 64.2964 143.893 64.598C144.268 64.8963 144.715 65.0455 145.236 65.0455C145.653 65.0455 146.025 64.9477 146.349 64.7521C146.678 64.5566 146.934 64.2881 147.12 63.9467C147.309 63.602 147.403 63.2126 147.403 62.7784C147.403 62.3343 147.306 61.9382 147.11 61.5902C146.918 61.2389 146.653 60.9621 146.315 60.7599C145.977 60.5578 145.59 60.455 145.156 60.4517C144.845 60.4484 144.525 60.4964 144.197 60.5959C143.869 60.692 143.598 60.8163 143.386 60.9688L142.233 60.8295L142.849 55.8182H148.139V56.9119H143.884L143.526 59.9148H143.585C143.794 59.7491 144.056 59.6115 144.371 59.5021C144.686 59.3928 145.014 59.3381 145.355 59.3381C145.978 59.3381 146.533 59.4872 147.021 59.7855C147.511 60.0805 147.896 60.4848 148.174 60.9986C148.456 61.5123 148.597 62.099 148.597 62.7585C148.597 63.4081 148.451 63.9882 148.159 64.4986C147.871 65.0057 147.473 65.4067 146.966 65.7017C146.459 65.9934 145.882 66.1392 145.236 66.1392ZM151.959 64.608L151.879 65.1449C151.823 65.5227 151.737 65.9271 151.621 66.358C151.508 66.7888 151.39 67.1948 151.268 67.576C151.145 67.9571 151.044 68.2604 150.964 68.4858H150.069C150.113 68.2737 150.169 67.9936 150.238 67.6456C150.308 67.2976 150.378 66.9081 150.447 66.4773C150.52 66.0497 150.58 65.6122 150.626 65.1648L150.686 64.608H151.959ZM156.475 55.8182V66H155.242V57.1108H155.183L152.697 58.7614V57.5085L155.242 55.8182H156.475ZM162.784 66.1392C162.367 66.1326 161.949 66.053 161.531 65.9006C161.114 65.7481 160.733 65.4912 160.388 65.13C160.043 64.7654 159.767 64.2732 159.558 63.6534C159.349 63.0303 159.244 62.2481 159.244 61.3068C159.244 60.4053 159.329 59.6065 159.498 58.9105C159.667 58.2112 159.912 57.6229 160.234 57.1456C160.555 56.665 160.943 56.3004 161.397 56.0518C161.855 55.8033 162.37 55.679 162.943 55.679C163.513 55.679 164.021 55.7933 164.465 56.022C164.912 56.2474 165.277 56.5623 165.558 56.9666C165.84 57.371 166.022 57.8366 166.105 58.3636H164.892C164.78 57.9062 164.561 57.5268 164.236 57.2251C163.911 56.9235 163.48 56.7727 162.943 56.7727C162.155 56.7727 161.533 57.1158 161.079 57.8018C160.628 58.4879 160.401 59.4508 160.398 60.6903H160.477C160.663 60.4086 160.883 60.1683 161.139 59.9695C161.397 59.7673 161.682 59.6115 161.994 59.5021C162.305 59.3928 162.635 59.3381 162.983 59.3381C163.566 59.3381 164.1 59.4839 164.584 59.7756C165.068 60.0639 165.456 60.4633 165.747 60.9737C166.039 61.4808 166.185 62.0625 166.185 62.7188C166.185 63.3485 166.044 63.9252 165.762 64.4489C165.481 64.9692 165.084 65.3835 164.574 65.6918C164.067 65.9967 163.47 66.1458 162.784 66.1392ZM162.784 65.0455C163.202 65.0455 163.576 64.9411 163.908 64.7322C164.243 64.5234 164.506 64.2434 164.698 63.892C164.894 63.5407 164.992 63.1496 164.992 62.7188C164.992 62.2978 164.897 61.915 164.708 61.5703C164.523 61.2223 164.266 60.9455 163.938 60.7401C163.613 60.5346 163.242 60.4318 162.824 60.4318C162.509 60.4318 162.216 60.4948 161.944 60.6207C161.672 60.7434 161.434 60.9124 161.228 61.1278C161.026 61.3433 160.867 61.5902 160.751 61.8686C160.635 62.1437 160.577 62.4337 160.577 62.7386C160.577 63.143 160.671 63.5208 160.86 63.8722C161.052 64.2235 161.314 64.5069 161.646 64.7223C161.981 64.9377 162.36 65.0455 162.784 65.0455ZM177.506 60.0739L176.452 60.3722C176.386 60.1965 176.288 60.0258 176.159 59.8601C176.033 59.6911 175.861 59.5518 175.642 59.4425C175.423 59.3331 175.143 59.2784 174.802 59.2784C174.335 59.2784 173.945 59.3861 173.634 59.6016C173.325 59.8137 173.171 60.0838 173.171 60.4119C173.171 60.7036 173.277 60.9339 173.489 61.103C173.701 61.272 174.033 61.4129 174.484 61.5256L175.617 61.804C176.3 61.9697 176.809 62.2232 177.143 62.5646C177.478 62.9027 177.646 63.3385 177.646 63.8722C177.646 64.3097 177.52 64.7008 177.268 65.0455C177.019 65.3902 176.671 65.6619 176.224 65.8608C175.776 66.0597 175.256 66.1591 174.663 66.1591C173.884 66.1591 173.239 65.9901 172.729 65.652C172.218 65.3139 171.895 64.8201 171.759 64.1705L172.873 63.892C172.979 64.303 173.179 64.6113 173.474 64.8168C173.773 65.0223 174.162 65.125 174.643 65.125C175.19 65.125 175.624 65.009 175.945 64.777C176.27 64.5417 176.433 64.2599 176.433 63.9318C176.433 63.6667 176.34 63.4446 176.154 63.2656C175.969 63.0833 175.683 62.9474 175.299 62.858L174.026 62.5597C173.327 62.3939 172.813 62.1371 172.485 61.7891C172.16 61.4377 171.998 60.9986 171.998 60.4716C171.998 60.0407 172.119 59.6596 172.361 59.3281C172.606 58.9967 172.939 58.7365 173.36 58.5476C173.784 58.3587 174.265 58.2642 174.802 58.2642C175.558 58.2642 176.151 58.4299 176.582 58.7614C177.016 59.0928 177.324 59.5303 177.506 60.0739ZM182.613 66.1591C181.878 66.1591 181.243 65.9967 180.709 65.6719C180.179 65.3438 179.77 64.8864 179.481 64.2997C179.196 63.7098 179.054 63.0237 179.054 62.2415C179.054 61.4593 179.196 60.7699 179.481 60.1733C179.77 59.5734 180.171 59.1061 180.684 58.7713C181.202 58.4332 181.805 58.2642 182.494 58.2642C182.892 58.2642 183.285 58.3305 183.672 58.4631C184.06 58.5956 184.413 58.8111 184.731 59.1094C185.05 59.4044 185.303 59.7955 185.492 60.2827C185.681 60.7699 185.775 61.3698 185.775 62.0824V62.5795H179.889V61.5653H184.582C184.582 61.1345 184.496 60.75 184.324 60.4119C184.155 60.0739 183.913 59.8071 183.598 59.6115C183.286 59.416 182.918 59.3182 182.494 59.3182C182.027 59.3182 181.622 59.4342 181.281 59.6662C180.943 59.8949 180.683 60.1932 180.501 60.5611C180.318 60.929 180.227 61.3234 180.227 61.7443V62.4205C180.227 62.9972 180.327 63.486 180.525 63.8871C180.728 64.2848 181.008 64.5881 181.366 64.7969C181.724 65.0024 182.14 65.1051 182.613 65.1051C182.922 65.1051 183.2 65.062 183.449 64.9759C183.701 64.8864 183.918 64.7538 184.1 64.5781C184.282 64.3991 184.423 64.1771 184.523 63.9119L185.656 64.2301C185.537 64.6146 185.336 64.9527 185.055 65.2443C184.773 65.5327 184.425 65.758 184.01 65.9205C183.596 66.0795 183.131 66.1591 182.613 66.1591ZM190.643 69.0227C190.076 69.0227 189.589 68.9498 189.181 68.804C188.773 68.6615 188.434 68.4725 188.162 68.2372C187.893 68.0052 187.68 67.7566 187.52 67.4915L188.455 66.8352C188.561 66.9744 188.695 67.1335 188.858 67.3125C189.02 67.4948 189.242 67.6522 189.524 67.7848C189.809 67.9207 190.182 67.9886 190.643 67.9886C191.259 67.9886 191.768 67.8395 192.169 67.5412C192.57 67.2429 192.77 66.7756 192.77 66.1392V64.5881H192.671C192.585 64.7273 192.462 64.8996 192.303 65.1051C192.147 65.3073 191.922 65.4879 191.627 65.647C191.335 65.8028 190.941 65.8807 190.444 65.8807C189.827 65.8807 189.274 65.7348 188.783 65.4432C188.296 65.1515 187.91 64.7273 187.625 64.1705C187.343 63.6136 187.202 62.9375 187.202 62.142C187.202 61.3598 187.34 60.6787 187.615 60.0987C187.89 59.5154 188.273 59.0646 188.763 58.7464C189.254 58.425 189.821 58.2642 190.464 58.2642C190.961 58.2642 191.355 58.3471 191.647 58.5128C191.942 58.6752 192.167 58.8608 192.323 59.0696C192.482 59.2751 192.605 59.4441 192.691 59.5767H192.81V58.3636H193.944V66.2188C193.944 66.875 193.795 67.4086 193.496 67.8196C193.201 68.2339 192.804 68.5372 192.303 68.7294C191.806 68.925 191.252 69.0227 190.643 69.0227ZM190.603 64.8267C191.073 64.8267 191.471 64.719 191.796 64.5036C192.121 64.2881 192.368 63.9782 192.537 63.5739C192.706 63.1695 192.79 62.6856 192.79 62.1222C192.79 61.572 192.707 61.0864 192.542 60.6655C192.376 60.2446 192.131 59.9148 191.806 59.6761C191.481 59.4375 191.08 59.3182 190.603 59.3182C190.106 59.3182 189.691 59.4441 189.36 59.696C189.032 59.9479 188.785 60.286 188.619 60.7102C188.457 61.1345 188.376 61.6051 188.376 62.1222C188.376 62.6525 188.458 63.1214 188.624 63.5291C188.793 63.9335 189.042 64.2517 189.37 64.4837C189.701 64.7124 190.112 64.8267 190.603 64.8267ZM196.947 66.0795C196.701 66.0795 196.491 65.9917 196.315 65.8161C196.14 65.6404 196.052 65.4299 196.052 65.1847C196.052 64.9394 196.14 64.7289 196.315 64.5533C196.491 64.3776 196.701 64.2898 196.947 64.2898C197.192 64.2898 197.402 64.3776 197.578 64.5533C197.754 64.7289 197.841 64.9394 197.841 65.1847C197.841 65.3471 197.8 65.4962 197.717 65.6321C197.638 65.768 197.53 65.8774 197.394 65.9602C197.261 66.0398 197.112 66.0795 196.947 66.0795ZM201.697 64.608L201.617 65.1449C201.561 65.5227 201.475 65.9271 201.359 66.358C201.246 66.7888 201.128 67.1948 201.006 67.576C200.883 67.9571 200.782 68.2604 200.703 68.4858H199.808C199.851 68.2737 199.907 67.9936 199.977 67.6456C200.046 67.2976 200.116 66.9081 200.186 66.4773C200.258 66.0497 200.318 65.6122 200.365 65.1648L200.424 64.608H201.697ZM211.368 55.8182V66H210.135V57.1108H210.075L207.589 58.7614V57.5085L210.135 55.8182H211.368ZM217.737 66.1392C217.08 66.1392 216.495 66.0265 215.982 65.8011C215.471 65.5758 215.065 65.2625 214.763 64.8615C214.465 64.4571 214.303 63.9882 214.276 63.4545H215.529C215.556 63.7827 215.668 64.0661 215.867 64.3047C216.066 64.54 216.326 64.7223 216.648 64.8516C216.969 64.9808 217.326 65.0455 217.717 65.0455C218.154 65.0455 218.542 64.9692 218.88 64.8168C219.218 64.6643 219.483 64.4522 219.675 64.1804C219.868 63.9086 219.964 63.5938 219.964 63.2358C219.964 62.8613 219.871 62.5315 219.685 62.2464C219.5 61.9581 219.228 61.7327 218.87 61.5703C218.512 61.4079 218.075 61.3267 217.558 61.3267H216.742V60.233H217.558C217.962 60.233 218.317 60.16 218.621 60.0142C218.93 59.8684 219.17 59.6629 219.342 59.3977C219.518 59.1326 219.606 58.821 219.606 58.4631C219.606 58.1184 219.53 57.8184 219.377 57.5632C219.225 57.308 219.009 57.1091 218.731 56.9666C218.456 56.8241 218.131 56.7528 217.756 56.7528C217.405 56.7528 217.074 56.8175 216.762 56.9467C216.454 57.0727 216.202 57.2566 216.006 57.4986C215.811 57.7372 215.705 58.0256 215.688 58.3636H214.495C214.515 57.83 214.676 57.3627 214.977 56.9616C215.279 56.5573 215.673 56.2424 216.161 56.017C216.651 55.7917 217.19 55.679 217.776 55.679C218.406 55.679 218.946 55.8066 219.397 56.0618C219.848 56.3137 220.194 56.6468 220.436 57.0611C220.678 57.4754 220.799 57.9228 220.799 58.4034C220.799 58.9768 220.648 59.4657 220.347 59.87C220.048 60.2744 219.642 60.5545 219.129 60.7102V60.7898C219.772 60.8958 220.274 61.1693 220.635 61.6101C220.996 62.0476 221.177 62.5895 221.177 63.2358C221.177 63.7893 221.026 64.2865 220.724 64.7273C220.426 65.1648 220.018 65.5095 219.501 65.7614C218.984 66.0133 218.396 66.1392 217.737 66.1392ZM230.051 66.1591C229.415 66.1591 228.853 65.9983 228.366 65.6768C227.879 65.352 227.497 64.8946 227.222 64.3047C226.947 63.7114 226.81 63.0104 226.81 62.2017C226.81 61.3996 226.947 60.7036 227.222 60.1136C227.497 59.5237 227.88 59.0679 228.371 58.7464C228.861 58.425 229.428 58.2642 230.071 58.2642C230.568 58.2642 230.961 58.3471 231.249 58.5128C231.541 58.6752 231.763 58.8608 231.915 59.0696C232.071 59.2751 232.192 59.4441 232.278 59.5767H232.378V55.8182H233.551V66H232.418V64.8267H232.278C232.192 64.9659 232.07 65.1416 231.911 65.3537C231.751 65.5625 231.524 65.7498 231.229 65.9155C230.934 66.0779 230.542 66.1591 230.051 66.1591ZM230.21 65.1051C230.681 65.1051 231.079 64.9825 231.403 64.7372C231.728 64.4886 231.975 64.1456 232.144 63.7081C232.313 63.2673 232.398 62.7585 232.398 62.1818C232.398 61.6117 232.315 61.1129 232.149 60.6854C231.983 60.2545 231.738 59.9197 231.413 59.6811C231.089 59.4392 230.688 59.3182 230.21 59.3182C229.713 59.3182 229.299 59.4458 228.967 59.701C228.639 59.9529 228.392 60.2959 228.227 60.7301C228.064 61.161 227.983 61.6449 227.983 62.1818C227.983 62.7254 228.066 63.2192 228.232 63.6634C228.401 64.1042 228.649 64.4555 228.977 64.7173C229.309 64.9759 229.72 65.1051 230.21 65.1051ZM239.065 66.1591C238.329 66.1591 237.694 65.9967 237.161 65.6719C236.63 65.3438 236.221 64.8864 235.933 64.2997C235.647 63.7098 235.505 63.0237 235.505 62.2415C235.505 61.4593 235.647 60.7699 235.933 60.1733C236.221 59.5734 236.622 59.1061 237.136 58.7713C237.653 58.4332 238.256 58.2642 238.945 58.2642C239.343 58.2642 239.736 58.3305 240.124 58.4631C240.511 58.5956 240.864 58.8111 241.183 59.1094C241.501 59.4044 241.754 59.7955 241.943 60.2827C242.132 60.7699 242.227 61.3698 242.227 62.0824V62.5795H236.34V61.5653H241.033C241.033 61.1345 240.947 60.75 240.775 60.4119C240.606 60.0739 240.364 59.8071 240.049 59.6115C239.737 59.416 239.37 59.3182 238.945 59.3182C238.478 59.3182 238.074 59.4342 237.732 59.6662C237.394 59.8949 237.134 60.1932 236.952 60.5611C236.769 60.929 236.678 61.3234 236.678 61.7443V62.4205C236.678 62.9972 236.778 63.486 236.977 63.8871C237.179 64.2848 237.459 64.5881 237.817 64.7969C238.175 65.0024 238.591 65.1051 239.065 65.1051C239.373 65.1051 239.651 65.062 239.9 64.9759C240.152 64.8864 240.369 64.7538 240.551 64.5781C240.733 64.3991 240.874 64.1771 240.974 63.9119L242.107 64.2301C241.988 64.6146 241.787 64.9527 241.506 65.2443C241.224 65.5327 240.876 65.758 240.462 65.9205C240.047 66.0795 239.582 66.1591 239.065 66.1591ZM251.349 58.3636V59.358H247.233V58.3636H251.349ZM248.466 66V57.3097C248.466 56.8722 248.569 56.5076 248.774 56.2159C248.98 55.9242 249.246 55.7055 249.575 55.5597C249.903 55.4138 250.249 55.3409 250.614 55.3409C250.902 55.3409 251.137 55.3641 251.32 55.4105C251.502 55.4569 251.638 55.5 251.727 55.5398L251.389 56.554C251.33 56.5341 251.247 56.5092 251.141 56.4794C251.038 56.4496 250.902 56.4347 250.733 56.4347C250.345 56.4347 250.065 56.5324 249.893 56.728C249.724 56.9235 249.639 57.2102 249.639 57.5881V66H248.466ZM255.881 66.1591C255.145 66.1591 254.511 65.9967 253.977 65.6719C253.447 65.3438 253.037 64.8864 252.749 64.2997C252.464 63.7098 252.321 63.0237 252.321 62.2415C252.321 61.4593 252.464 60.7699 252.749 60.1733C253.037 59.5734 253.438 59.1061 253.952 58.7713C254.469 58.4332 255.072 58.2642 255.762 58.2642C256.159 58.2642 256.552 58.3305 256.94 58.4631C257.328 58.5956 257.681 58.8111 257.999 59.1094C258.317 59.4044 258.571 59.7955 258.76 60.2827C258.949 60.7699 259.043 61.3698 259.043 62.0824V62.5795H253.157V61.5653H257.85C257.85 61.1345 257.764 60.75 257.591 60.4119C257.422 60.0739 257.18 59.8071 256.865 59.6115C256.554 59.416 256.186 59.3182 255.762 59.3182C255.294 59.3182 254.89 59.4342 254.549 59.6662C254.211 59.8949 253.95 60.1932 253.768 60.5611C253.586 60.929 253.495 61.3234 253.495 61.7443V62.4205C253.495 62.9972 253.594 63.486 253.793 63.8871C253.995 64.2848 254.275 64.5881 254.633 64.7969C254.991 65.0024 255.407 65.1051 255.881 65.1051C256.189 65.1051 256.468 65.062 256.716 64.9759C256.968 64.8864 257.185 64.7538 257.368 64.5781C257.55 64.3991 257.691 64.1771 257.79 63.9119L258.924 64.2301C258.804 64.6146 258.604 64.9527 258.322 65.2443C258.04 65.5327 257.692 65.758 257.278 65.9205C256.864 66.0795 256.398 66.1591 255.881 66.1591ZM266.84 58.3636L264.016 66H262.823L259.999 58.3636H261.271L263.379 64.4489H263.459L265.567 58.3636H266.84ZM268.765 66.0795C268.52 66.0795 268.309 65.9917 268.134 65.8161C267.958 65.6404 267.87 65.4299 267.87 65.1847C267.87 64.9394 267.958 64.7289 268.134 64.5533C268.309 64.3776 268.52 64.2898 268.765 64.2898C269.01 64.2898 269.221 64.3776 269.396 64.5533C269.572 64.7289 269.66 64.9394 269.66 65.1847C269.66 65.3471 269.618 65.4962 269.536 65.6321C269.456 65.768 269.348 65.8774 269.212 65.9602C269.08 66.0398 268.931 66.0795 268.765 66.0795Z" fill="#0F172A"/>
</g>
<path d="M48.87 192.273V201H47.8132V193.381H47.7621L45.6314 194.795V193.722L47.8132 192.273H48.87ZM54.2266 201H51.5334V192.273H54.3459C55.1925 192.273 55.9169 192.447 56.5192 192.797C57.1214 193.143 57.5831 193.642 57.9041 194.293C58.2251 194.94 58.3857 195.716 58.3857 196.619C58.3857 197.528 58.2237 198.311 57.8999 198.967C57.576 199.621 57.1044 200.124 56.4851 200.476C55.8658 200.825 55.1129 201 54.2266 201ZM52.5902 200.062H54.1584C54.88 200.062 55.478 199.923 55.9524 199.645C56.4268 199.366 56.7805 198.97 57.0135 198.456C57.2464 197.942 57.3629 197.33 57.3629 196.619C57.3629 195.915 57.2479 195.308 57.0178 194.8C56.7876 194.288 56.4439 193.896 55.9865 193.624C55.5291 193.348 54.9595 193.21 54.2777 193.21H52.5902V200.062Z" fill="#0F172A"/>
<path d="M90.8677 201.119C90.3677 201.119 89.9175 201.02 89.5169 200.821C89.1163 200.622 88.7953 200.349 88.5538 200.003C88.3123 199.656 88.1802 199.261 88.1575 198.818H89.1802C89.22 199.213 89.399 199.54 89.7172 199.798C90.0382 200.054 90.4217 200.182 90.8677 200.182C91.2257 200.182 91.5439 200.098 91.8223 199.93C92.1035 199.763 92.3237 199.533 92.4828 199.24C92.6447 198.945 92.7257 198.611 92.7257 198.239C92.7257 197.858 92.6419 197.518 92.4743 197.22C92.3095 196.919 92.0822 196.682 91.7925 196.509C91.5027 196.335 91.1717 196.247 90.7996 196.244C90.5325 196.241 90.2584 196.283 89.9771 196.368C89.6959 196.45 89.4643 196.557 89.2825 196.688L88.2939 196.568L88.8223 192.273H93.3564V193.21H89.7087L89.4018 195.784H89.453C89.6319 195.642 89.8564 195.524 90.1263 195.43C90.3962 195.337 90.6774 195.29 90.97 195.29C91.5041 195.29 91.98 195.418 92.3976 195.673C92.818 195.926 93.1476 196.273 93.3862 196.713C93.6277 197.153 93.7484 197.656 93.7484 198.222C93.7484 198.778 93.6234 199.276 93.3734 199.713C93.1263 200.148 92.7854 200.491 92.3507 200.744C91.916 200.994 91.4217 201.119 90.8677 201.119ZM98.2878 201H95.5947V192.273H98.4072C99.2538 192.273 99.9782 192.447 100.58 192.797C101.183 193.143 101.644 193.642 101.965 194.293C102.286 194.94 102.447 195.716 102.447 196.619C102.447 197.528 102.285 198.311 101.961 198.967C101.637 199.621 101.166 200.124 100.546 200.476C99.927 200.825 99.1742 201 98.2878 201ZM96.6515 200.062H98.2197C98.9413 200.062 99.5393 199.923 100.014 199.645C100.488 199.366 100.842 198.97 101.075 198.456C101.308 197.942 101.424 197.33 101.424 196.619C101.424 195.915 101.309 195.308 101.079 194.8C100.849 194.288 100.505 193.896 100.048 193.624C99.5904 193.348 99.0208 193.21 98.339 193.21H96.6515V200.062Z" fill="#0F172A"/>
<rect x="118.4" y="185" width="40" height="24" rx="12" fill="#7C3AED"/>
<path d="M134.245 192.273V201H133.188V193.381H133.137L131.006 194.795V193.722L133.188 192.273H134.245ZM136.908 192.273H138.169L141.135 199.517H141.238L144.203 192.273H145.465V201H144.476V194.369H144.391L141.664 201H140.709L137.982 194.369H137.897V201H136.908V192.273Z" fill="white"/>
<path d="M178.728 192.273V201H177.671V193.381H177.62L175.489 194.795V193.722L177.671 192.273H178.728ZM181.749 201H180.641L183.846 192.273H184.937L188.141 201H187.033L184.425 193.653H184.357L181.749 201ZM182.158 197.591H186.624V198.528H182.158V197.591Z" fill="#0F172A"/>
<path d="M220.726 201.119C220.226 201.119 219.775 201.02 219.375 200.821C218.974 200.622 218.653 200.349 218.412 200.003C218.17 199.656 218.038 199.261 218.015 198.818H219.038C219.078 199.213 219.257 199.54 219.575 199.798C219.896 200.054 220.28 200.182 220.726 200.182C221.084 200.182 221.402 200.098 221.68 199.93C221.961 199.763 222.182 199.533 222.341 199.24C222.503 198.945 222.584 198.611 222.584 198.239C222.584 197.858 222.5 197.518 222.332 197.22C222.167 196.919 221.94 196.682 221.65 196.509C221.361 196.335 221.03 196.247 220.657 196.244C220.39 196.241 220.116 196.283 219.835 196.368C219.554 196.45 219.322 196.557 219.14 196.688L218.152 196.568L218.68 192.273H223.214V193.21H219.567L219.26 195.784H219.311C219.49 195.642 219.714 195.524 219.984 195.43C220.254 195.337 220.535 195.29 220.828 195.29C221.362 195.29 221.838 195.418 222.255 195.673C222.676 195.926 223.005 196.273 223.244 196.713C223.486 197.153 223.606 197.656 223.606 198.222C223.606 198.778 223.481 199.276 223.231 199.713C222.984 200.148 222.643 200.491 222.209 200.744C221.774 200.994 221.28 201.119 220.726 201.119ZM225.811 201H224.703L227.907 192.273H228.998L232.203 201H231.095L228.487 193.653H228.418L225.811 201ZM226.22 197.591H230.686V198.528H226.22V197.591Z" fill="#0F172A"/>
<path d="M257.098 192.273H258.359L261.325 199.517H261.427L264.393 192.273H265.655V201H264.666V194.369H264.581L261.854 201H260.899L258.172 194.369H258.086V201H257.098V192.273ZM269.563 201.153C269.149 201.153 268.772 201.075 268.434 200.919C268.096 200.76 267.828 200.531 267.629 200.233C267.43 199.932 267.33 199.568 267.33 199.142C267.33 198.767 267.404 198.463 267.552 198.23C267.7 197.994 267.897 197.81 268.144 197.676C268.392 197.543 268.664 197.443 268.963 197.378C269.264 197.31 269.566 197.256 269.87 197.216C270.268 197.165 270.59 197.126 270.838 197.101C271.088 197.072 271.269 197.026 271.383 196.96C271.499 196.895 271.558 196.781 271.558 196.619V196.585C271.558 196.165 271.443 195.838 271.213 195.605C270.985 195.372 270.64 195.256 270.177 195.256C269.697 195.256 269.32 195.361 269.048 195.571C268.775 195.781 268.583 196.006 268.472 196.244L267.518 195.903C267.688 195.506 267.916 195.196 268.2 194.974C268.487 194.75 268.799 194.594 269.137 194.506C269.478 194.415 269.813 194.369 270.143 194.369C270.353 194.369 270.595 194.395 270.867 194.446C271.143 194.494 271.409 194.595 271.664 194.749C271.923 194.902 272.137 195.134 272.308 195.443C272.478 195.753 272.563 196.168 272.563 196.688V201H271.558V200.114H271.507C271.438 200.256 271.325 200.408 271.166 200.57C271.007 200.732 270.795 200.869 270.531 200.983C270.267 201.097 269.944 201.153 269.563 201.153ZM269.717 200.25C270.115 200.25 270.45 200.172 270.722 200.016C270.998 199.859 271.205 199.658 271.345 199.411C271.487 199.163 271.558 198.903 271.558 198.631V197.71C271.515 197.761 271.421 197.808 271.276 197.851C271.134 197.891 270.97 197.926 270.782 197.957C270.597 197.986 270.417 198.011 270.241 198.034C270.068 198.054 269.927 198.071 269.819 198.085C269.558 198.119 269.313 198.175 269.086 198.251C268.862 198.325 268.68 198.437 268.541 198.588C268.404 198.736 268.336 198.937 268.336 199.193C268.336 199.543 268.465 199.807 268.724 199.986C268.985 200.162 269.316 200.25 269.717 200.25ZM269.751 193.568L270.791 191.591H271.967L270.637 193.568H269.751ZM275.149 194.455L276.717 197.131L278.285 194.455H279.444L277.331 197.727L279.444 201H278.285L276.717 198.46L275.149 201H273.99L276.069 197.727L273.99 194.455H275.149Z" fill="#0F172A"/>
<defs>
<filter id="filter0_d_17_103" x="117" y="29" width="178" height="72" filterUnits="userSpaceOnUse" color-interpolation-filters="sRGB">
<feFlood flood-opacity="0" result="BackgroundImageFix"/>
<feColorMatrix in="SourceAlpha" type="matrix" values="0 0 0 0 0 0 0 0 0 0 0 0 0 0 0 0 0 0 127 0" result="hardAlpha"/>
<feOffset dy="4"/>
<feGaussianBlur stdDeviation="8"/>
<feComposite in2="hardAlpha" operator="out"/>
<feColorMatrix type="matrix" values="0 0 0 0 0.0588235 0 0 0 0 0.0901961 0 0 0 0 0.164706 0 0 0 0.15 0"/>
<feBlend mode="normal" in2="BackgroundImageFix" result="effect1_dropShadow_17_103"/>
<feBlend mode="normal" in="SourceGraphic" in2="effect1_dropShadow_17_103" result="shape"/>
</filter>
<linearGradient id="paint0_linear_17_103" x1="159.856" y1="34.8403" x2="159.856" y2="161" gradientUnits="userSpaceOnUse">
<stop stop-color="#7C3AED" stop-opacity="0.5"/>
<stop offset="1" stop-color="#7C3AED" stop-opacity="0"/>
</linearGradient>
</defs>
</svg>
